<?xml version="1.0" encoding="UTF-8" standalone="no"?>
<!-- Created with Inkscape (http://www.inkscape.org/) -->

<svg
   width="99.999786mm"
   height="15.601951mm"
   viewBox="0 0 99.999786 15.601951"
   version="1.1"
   id="svg1"
   xml:space="preserve"
   inkscape:version="1.4.2 (f4327f4, 2025-05-13)"
   xmlns:inkscape="http://www.inkscape.org/namespaces/inkscape"
   xmlns:sodipodi="http://sodipodi.sourceforge.net/DTD/sodipodi-0.dtd"
   xmlns="http://www.w3.org/2000/svg"
   xmlns:svg="http://www.w3.org/2000/svg"><sodipodi:namedview
     id="namedview1"
     pagecolor="#ffffff"
     bordercolor="#000000"
     borderopacity="0.25"
     inkscape:showpageshadow="2"
     inkscape:pageopacity="0.0"
     inkscape:pagecheckerboard="0"
     inkscape:deskcolor="#d1d1d1"
     inkscape:document-units="mm"
     inkscape:zoom="0.71891835"
     inkscape:cx="339.39876"
     inkscape:cy="525.0944"
     inkscape:window-width="1920"
     inkscape:window-height="1009"
     inkscape:window-x="-8"
     inkscape:window-y="-8"
     inkscape:window-maximized="1"
     inkscape:current-layer="layer-MC0"><inkscape:page
       x="0"
       y="0"
       width="99.999786"
       height="15.601951"
       id="page1"
       margin="0"
       bleed="0" /><inkscape:page
       x="204.77678"
       y="-9.4834576"
       width="109.99998"
       height="24.999987"
       id="page2"
       margin="17.761066 18.897333 17.760401 18.898266"
       bleed="0" /></sodipodi:namedview><defs
     id="defs1"><clipPath
       clipPathUnits="userSpaceOnUse"
       id="clipPath2"><path
         d="M 0,70.866 H 311.811 V 0 H 0 Z"
         transform="translate(-271.92871,-44.733901)"
         id="path2" /></clipPath></defs><g
     id="layer-MC0"
     inkscape:groupmode="layer"
     inkscape:label="Ebene 1"
     transform="matrix(0.26458332,0,0,0.26458334,204.77678,-9.4834573)"><path
       id="path1"
       d="M 0,0 21.522,12.812 -15.362,5.234 -9.649,0 h -24.336 v -1.077 h 25.512 l 2.625,-2.404 4.039,2.404 h 25.377 l -11.177,-15.048 -28.01,7.327 -0.273,-1.043 28.714,-7.509 3.507,4.721 5.874,-1.172 -13.898,-12.577 -21.242,10.328 -0.471,-0.969 21.896,-10.647 16.024,14.502 -7.473,1.491 L 25.709,0 Z m -5.711,-2.147 -7.369,6.751 28.568,5.869 z M -29.37,-7.921 c -4.725,0 -5.79,-2.829 -5.79,-4.592 0,-5.026 8.386,-5.091 8.386,-8.086 0,-1.73 -1.265,-2.562 -2.895,-2.562 -2.762,0 -2.795,2.263 -2.795,3.227 h -3.095 c -0.1,-3.859 2.163,-5.457 5.79,-5.457 3.328,0 5.856,1.431 5.856,5.125 0,5.124 -8.385,5.058 -8.385,8.018 0,1.465 1.131,2.264 2.596,2.264 1.73,0 2.662,-0.933 2.628,-2.695 h 3.028 c 0.233,3.327 -2.329,4.758 -5.324,4.758 m -7.553,-17.137 -6.588,9.583 5.59,7.221 h -3.327 l -5.125,-7.254 h -0.066 v 14.475 h -2.729 v -24.025 h 2.729 v 9.417 h 0.066 l 5.99,-9.417 z m -16.304,14.408 c 0.233,-0.033 0.499,-0.066 0.732,-0.1 v 2.829 c -2.662,0 -4.06,-0.3 -5.191,-2.862 h -0.067 v 2.529 h -2.728 v -16.804 h 2.728 v 9.916 c 0,2.263 0.766,4.559 3.794,4.559 0.266,0 0.499,-0.033 0.732,-0.067 m -10.682,-6.255 c 0,4.924 -0.565,8.984 -6.388,8.984 -5.824,0 -6.389,-4.06 -6.389,-8.984 0,-7.421 2.828,-8.486 6.389,-8.486 3.56,0 6.388,1.065 6.388,8.486 m -2.861,1.164 c 0,-5.457 -0.699,-7.42 -3.527,-7.42 -2.829,0 -3.528,1.963 -3.528,7.42 0,4.592 1.431,5.59 3.528,5.59 2.096,0 3.527,-0.998 3.527,-5.59 m -16.438,-9.317 6.356,24.025 h -3.195 l -4.891,-20.83 h -0.067 l -4.359,20.83 h -3.96 l -4.825,-20.83 h -0.066 l -4.526,20.83 h -3.261 l 5.857,-24.025 h 3.727 l 4.858,20.83 h 0.066 l 4.559,-20.83 z m -27.785,0 h 2.729 v 11.646 c 0,3.328 -0.899,5.491 -4.492,5.491 -2.163,0 -3.428,-0.599 -4.493,-2.496 h -0.133 v 2.163 h -2.895 c 0.1,-1.165 0.167,-2.329 0.167,-3.495 v -13.309 h 2.728 v 9.949 c 0,2.296 0.433,4.958 3.428,4.958 2.329,0 2.961,-1.464 2.961,-3.261 z m -13.809,-1.697 v 18.501 h -2.729 v -2.063 h -0.066 c -0.765,1.631 -2.163,2.396 -3.927,2.396 -1.364,0 -5.257,-0.499 -5.257,-8.219 0,-4.991 0.898,-8.918 5.457,-8.918 1.464,0 2.995,0.765 3.694,2.096 h 0.099 v -3.494 c 0,-1.73 -1.031,-2.894 -2.928,-2.894 -1.497,0 -2.529,0.865 -2.562,2.429 h -3.061 c -0.233,-3.095 2.296,-4.493 5.091,-4.493 3.693,0 6.189,0.899 6.189,4.659 m -2.662,10.182 c 0,-2.329 0.1,-6.222 -3.194,-6.222 -2.03,0 -3.261,1.264 -3.261,6.655 0,2.229 0.099,5.956 3.194,5.956 3.427,0 3.261,-3.893 3.261,-6.389 m -16.238,12.612 h 3.061 v 2.928 h -3.061 z m -11.779,-8.287 c 0,1.465 1.132,2.264 2.596,2.264 1.73,0 2.662,-0.933 2.629,-2.695 h 3.028 c 0.233,3.327 -2.33,4.758 -5.324,4.758 -4.725,0 -5.79,-2.829 -5.79,-4.592 0,-5.026 8.385,-5.091 8.385,-8.086 0,-1.73 -1.264,-2.562 -2.895,-2.562 -2.762,0 -2.795,2.263 -2.795,3.227 h -3.095 c -0.099,-3.859 2.163,-5.457 5.79,-5.457 3.328,0 5.857,1.431 5.857,5.125 0,5.124 -8.386,5.058 -8.386,8.018 m -16.072,-5.291 h 9.451 v 1.432 c 0,5.557 -1.198,8.186 -5.99,8.186 -5.823,0 -6.389,-4.06 -6.389,-8.984 0,-7.421 2.829,-8.486 6.389,-8.486 3.527,0 5.823,1.697 5.856,5.424 h -2.994 c -0.1,-1.698 -1.065,-3.194 -2.929,-3.194 -2.129,0 -3.394,0.932 -3.394,5.622 m 0,2.064 c 0.034,4.659 1.465,5.491 3.195,5.491 1.996,0 3.361,-0.599 3.361,-5.491 z m -7.52,-6.488 c 0.999,1.597 1.465,4.558 1.465,9.683 0,0.765 -0.1,5.557 -1.065,7.587 -1.198,2.562 -3.394,3.66 -6.456,3.66 h -7.387 v -24.025 h 5.524 c 4.193,0 6.622,1.032 7.919,3.095 m -1.663,6.755 c 0,-5.591 -1.564,-7.188 -5.823,-7.188 h -2.895 v 18.701 h 4.026 c 3.194,0 4.692,-1.797 4.692,-6.655 z m -16.139,-1.697 c 0,4.924 -0.565,8.984 -6.389,8.984 -5.823,0 -6.389,-4.06 -6.389,-8.984 0,-7.421 2.829,-8.486 6.389,-8.486 3.561,0 6.389,1.065 6.389,8.486 m -2.861,1.164 c 0,-5.457 -0.699,-7.42 -3.528,-7.42 -2.828,0 -3.527,1.963 -3.527,7.42 0,4.592 1.431,5.59 3.527,5.59 2.097,0 3.528,-0.998 3.528,-5.59 m -12.844,5.091 c 0.233,-0.033 0.499,-0.066 0.732,-0.1 v 2.829 c -2.662,0 -4.06,-0.3 -5.191,-2.862 h -0.067 v 2.529 h -2.728 v -16.804 h 2.728 v 9.916 c 0,2.263 0.765,4.559 3.794,4.559 0.266,0 0.499,-0.033 0.732,-0.067 m -20.997,-6.889 h 9.45 v 1.432 c 0,5.557 -1.198,8.186 -5.989,8.186 -5.824,0 -6.389,-4.06 -6.389,-8.984 0,-7.421 2.828,-8.486 6.389,-8.486 3.527,0 5.823,1.697 5.856,5.424 h -2.995 c -0.1,-1.698 -1.065,-3.194 -2.928,-3.194 -2.13,0 -3.394,0.932 -3.394,5.622 m 0,2.064 c 0.033,4.659 1.464,5.491 3.194,5.491 1.997,0 3.361,-0.599 3.361,-5.491 z m -8.273,-9.583 h 3.427 l -7.819,24.025 h -3.893 l -7.62,-24.025 h 3.094 l 1.797,5.723 h 9.284 z m -2.562,8.385 h -7.687 l 3.76,12.811 h 0.067 z m 103.605,8.419 h -2.729 v -16.804 h 2.729 z"
       style="fill:#0b6fae;fill-opacity:1;fill-rule:nonzero;stroke:none"
       transform="matrix(1.3333333,0,0,-1.3333333,-430.28621,52.925654)"
       clip-path="url(#clipPath2)" /></g></svg>
