<?xml version="1.0" encoding="UTF-8" standalone="no"?>
<svg
   width="237"
   height="118"
   viewBox="0 0 237 118"
   version="1.1"
   id="svg206"
   sodipodi:docname="AISLER_PowerfulPrototyping_Logo.svg"
   inkscape:version="1.2.1 (9c6d41e410, 2022-07-14)"
   xmlns:inkscape="http://www.inkscape.org/namespaces/inkscape"
   xmlns:sodipodi="http://sodipodi.sourceforge.net/DTD/sodipodi-0.dtd"
   xmlns:xlink="http://www.w3.org/1999/xlink"
   xmlns="http://www.w3.org/2000/svg"
   xmlns:svg="http://www.w3.org/2000/svg"
   xmlns:rdf="http://www.w3.org/1999/02/22-rdf-syntax-ns#"
   xmlns:cc="http://creativecommons.org/ns#"
   xmlns:dc="http://purl.org/dc/elements/1.1/">
  <sodipodi:namedview
     id="namedview208"
     pagecolor="#ffffff"
     bordercolor="#666666"
     borderopacity="1.0"
     inkscape:showpageshadow="2"
     inkscape:pageopacity="0.0"
     inkscape:pagecheckerboard="0"
     inkscape:deskcolor="#d1d1d1"
     showgrid="false"
     inkscape:zoom="5.7257384"
     inkscape:cx="132.472"
     inkscape:cy="29.690494"
     inkscape:window-width="2560"
     inkscape:window-height="1371"
     inkscape:window-x="0"
     inkscape:window-y="0"
     inkscape:window-maximized="1"
     inkscape:current-layer="svg206" />
  <title
     id="title147">AISLER_PowerfulPrototyping_Logo</title>
  <defs
     id="defs160">
    <path
       d="m 85.016721,50.711728 c -2.983043,1.491522 -5.621125,2.983043 -9.775546,2.983043 h -0.615469 l -4.534583,-0.01209 0.01038,0.01209 h -4.285514 l -0.02417,-0.02355 -48.712543,-0.129848 C 7.6933717,53.694771 0,46.638587 0,38.048449 0.15386743,30.685474 5.5392276,24.242871 12.924865,22.862313 14.309671,13.658594 22.926248,6.6024098 33.235366,6.6024098 c 1.384807,0 2.769614,0.1533953 4.000553,0.3067906 4.616023,-4.448464 10.924588,-7.05618438 17.540888,-6.90278906 13.232599,0 24.003319,9.81730006 24.003319,21.93552966 v 0.613581 c 7.847239,1.380558 13.694202,7.823161 13.694202,15.339532 0,3.374697 -2.32042,7.225911 -4.474564,9.833631 L 75.470984,35.796514 v -4.354151 c 1.296909,-0.634326 2.18925,-1.959959 2.18925,-3.492549 0,-2.148898 -1.754329,-3.890925 -3.918404,-3.890925 -2.164075,0 -3.918404,1.742027 -3.918404,3.890925 0,1.535489 0.89572,2.863238 2.196615,3.496141 v 0.698903 l -4.280018,-4.320269 v -4.217851 c 1.239366,-0.653464 2.083403,-1.948243 2.083403,-3.438775 0,-2.148898 -1.754329,-3.890925 -3.918403,-3.890925 -2.164075,0 -3.918404,1.742027 -3.918404,3.890925 0,1.386595 0.730429,2.603785 1.830054,3.29287 v 0.40351 l -5.364039,-5.095985 c 0.255681,-0.516904 0.399262,-1.098369 0.399262,-1.713135 0,-2.148899 -1.754329,-3.890925 -3.918404,-3.890925 -2.164074,0 -3.918404,1.742026 -3.918404,3.890925 0,2.148899 1.75433,3.890926 3.918404,3.890926 0.306499,0 0.604778,-0.03494 0.891018,-0.101038 z m -14.925598,2.970956 -4.27513,-4.976795 v -8.591545 c 1.431279,-0.579405 2.440072,-1.974968 2.440072,-3.604494 0,-2.148899 -1.754329,-3.890925 -3.918404,-3.890925 -2.164074,0 -3.918404,1.742026 -3.918404,3.890925 0,1.531594 0.891182,2.8565 2.186723,3.491312 v 5.464525 l -4.636687,-4.680291 v -9.2271 c 1.436522,-0.576969 2.449964,-1.975204 2.449964,-3.608482 0,-2.148898 -1.754329,-3.890925 -3.918403,-3.890925 -2.164075,0 -3.918404,1.742027 -3.918404,3.890925 0,1.518595 0.876118,2.833996 2.153823,3.474999 h -0.07747 v 1.080067 l -3.109535,-3.240201 v -5.040314 l -6.21341,-5.958251 c 0.125565,-0.381104 0.193467,-0.788124 0.193467,-1.210891 0,-2.148899 -1.754329,-3.890925 -3.918403,-3.890925 -2.164075,0 -3.918404,1.742026 -3.918404,3.890925 0,2.148899 1.754329,3.890926 3.918404,3.890926 0.406365,0 0.798283,-0.06142 1.16685,-0.175435 l 5.204815,5.253763 v 4.680291 l 6.063358,6.480404 v 5.040314 L 65.791828,53.671224 Z M 41.61092,19.389778 c -1.298445,0 -2.351043,-1.045216 -2.351043,-2.334555 0,-1.289339 1.052598,-2.334555 2.351043,-2.334555 1.298444,0 2.351042,1.045216 2.351042,2.334555 0,1.289339 -1.052598,2.334555 -2.351042,2.334555 z m 13.322572,0 c -1.298445,0 -2.351042,-1.045216 -2.351042,-2.334555 0,-1.289339 1.052597,-2.334555 2.351042,-2.334555 1.298445,0 2.351042,1.045216 2.351042,2.334555 0,1.289339 -1.052597,2.334555 -2.351042,2.334555 z m 1.567362,10.894592 c -1.298445,0 -2.351043,-1.045216 -2.351043,-2.334556 0,-1.289339 1.052598,-2.334555 2.351043,-2.334555 1.298444,0 2.351042,1.045216 2.351042,2.334555 0,1.28934 -1.052598,2.334556 -2.351042,2.334556 z m 9.404169,-7.781851 c -1.298445,0 -2.351043,-1.045216 -2.351043,-2.334556 0,-1.289339 1.052598,-2.334555 2.351043,-2.334555 1.298444,0 2.351042,1.045216 2.351042,2.334555 0,1.28934 -1.052598,2.334556 -2.351042,2.334556 z m 7.836807,7.781851 c -1.298445,0 -2.351042,-1.045216 -2.351042,-2.334556 0,-1.289339 1.052597,-2.334555 2.351042,-2.334555 1.298445,0 2.351042,1.045216 2.351042,2.334555 0,1.28934 -1.052597,2.334556 -2.351042,2.334556 z m -9.404169,8.560036 c -1.298445,0 -2.351042,-1.045216 -2.351042,-2.334556 0,-1.289339 1.052597,-2.334555 2.351042,-2.334555 1.298445,0 2.351042,1.045216 2.351042,2.334555 0,1.28934 -1.052597,2.334556 -2.351042,2.334556 z m 79.563069,0.494233 h -2.07143 c -0.23936,0 -0.43269,-0.05984 -0.58,-0.179524 -0.1473,-0.119683 -0.25777,-0.271586 -0.33143,-0.455715 l -1.85047,-4.778098 h -8.87953 l -1.85048,4.778098 c -0.0552,0.165716 -0.16111,0.313016 -0.31762,0.441905 -0.15651,0.12889 -0.34984,0.193334 -0.58,0.193334 h -2.07143 l 7.91286,-19.789061 h 2.70667 z m -12.96715,-7.346671 h 7.3881 l -3.10714,-8.050958 c -0.10127,-0.239367 -0.20024,-0.515554 -0.29691,-0.828572 -0.0967,-0.313018 -0.19563,-0.649046 -0.2969,-1.008096 -0.0921,0.35905 -0.18643,0.69738 -0.2831,1.015001 -0.0967,0.317621 -0.19563,0.59611 -0.2969,0.835477 z m 22.85938,7.346671 h -2.67905 V 19.549578 h 2.67905 z m 19.77986,-16.695725 c -0.0829,0.138096 -0.17262,0.241666 -0.26929,0.310714 -0.0967,0.06905 -0.21405,0.103572 -0.35214,0.103572 -0.15651,0 -0.34064,-0.07825 -0.55238,-0.234762 -0.21175,-0.156509 -0.47643,-0.329126 -0.79405,-0.517858 -0.31762,-0.188731 -0.69968,-0.361348 -1.14619,-0.517857 -0.44651,-0.156509 -0.98738,-0.234762 -1.62262,-0.234762 -0.59842,0 -1.12548,0.08056 -1.5812,0.241667 -0.45571,0.161112 -0.83777,0.379761 -1.14619,0.655952 -0.30841,0.276193 -0.54087,0.600713 -0.69738,0.973572 -0.15651,0.37286 -0.23476,0.775634 -0.23476,1.208335 0,0.552384 0.13579,1.010395 0.40738,1.374048 0.27159,0.363653 0.63063,0.674364 1.07715,0.932144 0.44651,0.257779 0.95285,0.481031 1.51904,0.669762 0.5662,0.188731 1.14619,0.384364 1.74,0.586905 0.59382,0.202541 1.17381,0.430396 1.74001,0.683572 0.56619,0.253176 1.07253,0.573094 1.51904,0.959762 0.44652,0.386669 0.80556,0.860792 1.07715,1.422382 0.27159,0.561591 0.40738,1.252061 0.40738,2.07143 0,0.865402 -0.1473,1.677855 -0.44191,2.437383 -0.2946,0.759528 -0.72499,1.420077 -1.29119,1.981668 -0.56619,0.56159 -1.26126,1.003491 -2.08524,1.325715 -0.82397,0.322224 -1.76071,0.483334 -2.81024,0.483334 -1.28889,0 -2.45809,-0.232459 -3.50762,-0.697382 -1.04953,-0.464923 -1.94714,-1.093251 -2.69286,-1.885001 l 0.77334,-1.270477 c 0.0737,-0.101271 0.16341,-0.186429 0.26928,-0.255476 0.10588,-0.06905 0.22326,-0.103572 0.35215,-0.103572 0.11968,0 0.25547,0.04833 0.40738,0.145 0.1519,0.09667 0.32452,0.21865 0.51786,0.365953 0.19333,0.147302 0.41428,0.308412 0.66285,0.483333 0.24858,0.174922 0.53167,0.336032 0.84929,0.483334 0.31762,0.147302 0.67897,0.269285 1.08405,0.365953 0.40508,0.09667 0.86079,0.145 1.36714,0.145 0.63524,0 1.20143,-0.08746 1.69857,-0.262381 0.49715,-0.174922 0.91834,-0.42119 1.26358,-0.73881 0.34524,-0.317621 0.60992,-0.69738 0.79404,-1.139287 0.18413,-0.441907 0.2762,-0.934442 0.2762,-1.47762 0,-0.598416 -0.1358,-1.088649 -0.40739,-1.470715 -0.27159,-0.382066 -0.62833,-0.701983 -1.07023,-0.959763 -0.44191,-0.257779 -0.94826,-0.476428 -1.51905,-0.655952 -0.5708,-0.179525 -1.1508,-0.36365 -1.74001,-0.552382 -0.5892,-0.188731 -1.1692,-0.40738 -1.74,-0.655953 -0.57079,-0.248572 -1.07714,-0.570792 -1.51904,-0.966667 -0.44191,-0.395875 -0.79865,-0.890712 -1.07024,-1.484524 -0.27159,-0.593813 -0.40739,-1.328013 -0.40739,-2.202621 0,-0.699687 0.1358,-1.376347 0.40739,-2.030001 0.27159,-0.653655 0.66745,-1.233649 1.18762,-1.740001 0.52016,-0.506353 1.15999,-0.911428 1.91952,-1.215239 0.75953,-0.303812 1.63182,-0.455715 2.61691,-0.455715 1.10477,0 2.11055,0.174919 3.01738,0.524762 0.90683,0.349843 1.70547,0.856188 2.39595,1.519049 z m 12.12937,14.444771 h 8.56191 v 2.250954 H 183.03695 V 19.549578 h 2.66524 z m 28.31414,-17.538107 v 2.181907 h -9.51476 v 6.573337 h 7.70572 v 2.099049 h -7.70572 v 6.752862 h 9.52857 l -0.0138,2.181906 H 201.82252 V 19.549578 Z m 11.02461,11.53096 v 8.258101 h -2.66523 V 19.549578 h 5.59286 c 1.25207,0 2.3338,0.126587 3.24524,0.379763 0.91143,0.253176 1.66404,0.619125 2.25785,1.097857 0.59382,0.478733 1.03342,1.056426 1.31881,1.733097 0.2854,0.67667 0.4281,1.433886 0.4281,2.271668 0,0.699686 -0.11047,1.353331 -0.33143,1.960954 -0.22095,0.607622 -0.54087,1.153093 -0.95976,1.636429 -0.41889,0.483336 -0.92984,0.897618 -1.53286,1.242858 -0.60302,0.34524 -1.28658,0.600714 -2.05072,0.766429 0.34985,0.220954 0.64445,0.501745 0.88381,0.842382 L 237,39.338639 h -2.37524 c -0.48794,0 -0.84698,-0.188728 -1.07714,-0.566191 l -5.13715,-7.070481 c -0.15651,-0.220953 -0.32452,-0.379761 -0.50405,-0.476429 -0.17952,-0.09667 -0.45801,-0.145 -0.83547,-0.145 z m 0,-1.947144 h 2.81715 c 0.77334,0 1.4569,-0.09436 2.05072,-0.283095 0.59381,-0.188731 1.09095,-0.455713 1.49142,-0.800953 0.40048,-0.34524 0.70199,-0.75722 0.90453,-1.235953 0.20254,-0.478733 0.30381,-1.008093 0.30381,-1.588097 0,-1.178419 -0.38666,-2.066823 -1.16,-2.665239 -0.77334,-0.598416 -1.93333,-0.89762 -3.48,-0.89762 h -2.92763 z"
       id="path-1" />
    <linearGradient
       x1="0.5"
       y1="0"
       x2="0.5"
       y2="1"
       id="linearGradient-3">
      <stop
         stop-color="#FFA011"
         offset="0%"
         id="stop150" />
      <stop
         stop-color="#FF4011"
         offset="100%"
         id="stop152" />
    </linearGradient>
    <path
       d="m 85.016721,50.711728 c -2.983043,1.491522 -5.621125,2.983043 -9.775546,2.983043 h -0.615469 l -4.534583,-0.01209 0.01038,0.01209 h -4.285514 l -0.02417,-0.02355 -48.712543,-0.129848 C 7.6933717,53.694771 0,46.638587 0,38.048449 0.15386743,30.685474 5.5392276,24.242871 12.924865,22.862313 14.309671,13.658594 22.926248,6.6024098 33.235366,6.6024098 c 1.384807,0 2.769614,0.1533953 4.000553,0.3067906 4.616023,-4.448464 10.924588,-7.05618438 17.540888,-6.90278906 13.232599,0 24.003319,9.81730006 24.003319,21.93552966 v 0.613581 c 7.847239,1.380558 13.694202,7.823161 13.694202,15.339532 0,3.374697 -2.32042,7.225911 -4.474564,9.833631 L 75.470984,35.796514 v -4.354151 c 1.296909,-0.634326 2.18925,-1.959959 2.18925,-3.492549 0,-2.148898 -1.754329,-3.890925 -3.918404,-3.890925 -2.164075,0 -3.918404,1.742027 -3.918404,3.890925 0,1.535489 0.89572,2.863238 2.196615,3.496141 v 0.698903 l -4.280018,-4.320269 v -4.217851 c 1.239366,-0.653464 2.083403,-1.948243 2.083403,-3.438775 0,-2.148898 -1.754329,-3.890925 -3.918403,-3.890925 -2.164075,0 -3.918404,1.742027 -3.918404,3.890925 0,1.386595 0.730429,2.603785 1.830054,3.29287 v 0.40351 l -5.364039,-5.095985 c 0.255681,-0.516904 0.399262,-1.098369 0.399262,-1.713135 0,-2.148899 -1.754329,-3.890925 -3.918404,-3.890925 -2.164074,0 -3.918404,1.742026 -3.918404,3.890925 0,2.148899 1.75433,3.890926 3.918404,3.890926 0.306499,0 0.604778,-0.03494 0.891018,-0.101038 z m -14.925598,2.970956 -4.27513,-4.976795 v -8.591545 c 1.431279,-0.579405 2.440072,-1.974968 2.440072,-3.604494 0,-2.148899 -1.754329,-3.890925 -3.918404,-3.890925 -2.164074,0 -3.918404,1.742026 -3.918404,3.890925 0,1.531594 0.891182,2.8565 2.186723,3.491312 v 5.464525 l -4.636687,-4.680291 v -9.2271 c 1.436522,-0.576969 2.449964,-1.975204 2.449964,-3.608482 0,-2.148898 -1.754329,-3.890925 -3.918403,-3.890925 -2.164075,0 -3.918404,1.742027 -3.918404,3.890925 0,1.518595 0.876118,2.833996 2.153823,3.474999 h -0.07747 v 1.080067 l -3.109535,-3.240201 v -5.040314 l -6.21341,-5.958251 c 0.125565,-0.381104 0.193467,-0.788124 0.193467,-1.210891 0,-2.148899 -1.754329,-3.890925 -3.918403,-3.890925 -2.164075,0 -3.918404,1.742026 -3.918404,3.890925 0,2.148899 1.754329,3.890926 3.918404,3.890926 0.406365,0 0.798283,-0.06142 1.16685,-0.175435 l 5.204815,5.253763 v 4.680291 l 6.063358,6.480404 v 5.040314 L 65.791828,53.671224 Z M 41.61092,19.389778 c -1.298445,0 -2.351043,-1.045216 -2.351043,-2.334555 0,-1.289339 1.052598,-2.334555 2.351043,-2.334555 1.298444,0 2.351042,1.045216 2.351042,2.334555 0,1.289339 -1.052598,2.334555 -2.351042,2.334555 z m 13.322572,0 c -1.298445,0 -2.351042,-1.045216 -2.351042,-2.334555 0,-1.289339 1.052597,-2.334555 2.351042,-2.334555 1.298445,0 2.351042,1.045216 2.351042,2.334555 0,1.289339 -1.052597,2.334555 -2.351042,2.334555 z m 1.567362,10.894592 c -1.298445,0 -2.351043,-1.045216 -2.351043,-2.334556 0,-1.289339 1.052598,-2.334555 2.351043,-2.334555 1.298444,0 2.351042,1.045216 2.351042,2.334555 0,1.28934 -1.052598,2.334556 -2.351042,2.334556 z m 9.404169,-7.781851 c -1.298445,0 -2.351043,-1.045216 -2.351043,-2.334556 0,-1.289339 1.052598,-2.334555 2.351043,-2.334555 1.298444,0 2.351042,1.045216 2.351042,2.334555 0,1.28934 -1.052598,2.334556 -2.351042,2.334556 z m 7.836807,7.781851 c -1.298445,0 -2.351042,-1.045216 -2.351042,-2.334556 0,-1.289339 1.052597,-2.334555 2.351042,-2.334555 1.298445,0 2.351042,1.045216 2.351042,2.334555 0,1.28934 -1.052597,2.334556 -2.351042,2.334556 z m -9.404169,8.560036 c -1.298445,0 -2.351042,-1.045216 -2.351042,-2.334556 0,-1.289339 1.052597,-2.334555 2.351042,-2.334555 1.298445,0 2.351042,1.045216 2.351042,2.334555 0,1.28934 -1.052597,2.334556 -2.351042,2.334556 z m 79.563069,0.494233 h -2.07143 c -0.23936,0 -0.43269,-0.05984 -0.58,-0.179524 -0.1473,-0.119683 -0.25777,-0.271586 -0.33143,-0.455715 l -1.85047,-4.778098 h -8.87953 l -1.85048,4.778098 c -0.0552,0.165716 -0.16111,0.313016 -0.31762,0.441905 -0.15651,0.12889 -0.34984,0.193334 -0.58,0.193334 h -2.07143 l 7.91286,-19.789061 h 2.70667 z m -12.96715,-7.346671 h 7.3881 l -3.10714,-8.050958 c -0.10127,-0.239367 -0.20024,-0.515554 -0.29691,-0.828572 -0.0967,-0.313018 -0.19563,-0.649046 -0.2969,-1.008096 -0.0921,0.35905 -0.18643,0.69738 -0.2831,1.015001 -0.0967,0.317621 -0.19563,0.59611 -0.2969,0.835477 z m 22.85938,7.346671 h -2.67905 V 19.549578 h 2.67905 z m 19.77986,-16.695725 c -0.0829,0.138096 -0.17262,0.241666 -0.26929,0.310714 -0.0967,0.06905 -0.21405,0.103572 -0.35214,0.103572 -0.15651,0 -0.34064,-0.07825 -0.55238,-0.234762 -0.21175,-0.156509 -0.47643,-0.329126 -0.79405,-0.517858 -0.31762,-0.188731 -0.69968,-0.361348 -1.14619,-0.517857 -0.44651,-0.156509 -0.98738,-0.234762 -1.62262,-0.234762 -0.59842,0 -1.12548,0.08056 -1.5812,0.241667 -0.45571,0.161112 -0.83777,0.379761 -1.14619,0.655952 -0.30841,0.276193 -0.54087,0.600713 -0.69738,0.973572 -0.15651,0.37286 -0.23476,0.775634 -0.23476,1.208335 0,0.552384 0.13579,1.010395 0.40738,1.374048 0.27159,0.363653 0.63063,0.674364 1.07715,0.932144 0.44651,0.257779 0.95285,0.481031 1.51904,0.669762 0.5662,0.188731 1.14619,0.384364 1.74,0.586905 0.59382,0.202541 1.17381,0.430396 1.74001,0.683572 0.56619,0.253176 1.07253,0.573094 1.51904,0.959762 0.44652,0.386669 0.80556,0.860792 1.07715,1.422382 0.27159,0.561591 0.40738,1.252061 0.40738,2.07143 0,0.865402 -0.1473,1.677855 -0.44191,2.437383 -0.2946,0.759528 -0.72499,1.420077 -1.29119,1.981668 -0.56619,0.56159 -1.26126,1.003491 -2.08524,1.325715 -0.82397,0.322224 -1.76071,0.483334 -2.81024,0.483334 -1.28889,0 -2.45809,-0.232459 -3.50762,-0.697382 -1.04953,-0.464923 -1.94714,-1.093251 -2.69286,-1.885001 l 0.77334,-1.270477 c 0.0737,-0.101271 0.16341,-0.186429 0.26928,-0.255476 0.10588,-0.06905 0.22326,-0.103572 0.35215,-0.103572 0.11968,0 0.25547,0.04833 0.40738,0.145 0.1519,0.09667 0.32452,0.21865 0.51786,0.365953 0.19333,0.147302 0.41428,0.308412 0.66285,0.483333 0.24858,0.174922 0.53167,0.336032 0.84929,0.483334 0.31762,0.147302 0.67897,0.269285 1.08405,0.365953 0.40508,0.09667 0.86079,0.145 1.36714,0.145 0.63524,0 1.20143,-0.08746 1.69857,-0.262381 0.49715,-0.174922 0.91834,-0.42119 1.26358,-0.73881 0.34524,-0.317621 0.60992,-0.69738 0.79404,-1.139287 0.18413,-0.441907 0.2762,-0.934442 0.2762,-1.47762 0,-0.598416 -0.1358,-1.088649 -0.40739,-1.470715 -0.27159,-0.382066 -0.62833,-0.701983 -1.07023,-0.959763 -0.44191,-0.257779 -0.94826,-0.476428 -1.51905,-0.655952 -0.5708,-0.179525 -1.1508,-0.36365 -1.74001,-0.552382 -0.5892,-0.188731 -1.1692,-0.40738 -1.74,-0.655953 -0.57079,-0.248572 -1.07714,-0.570792 -1.51904,-0.966667 -0.44191,-0.395875 -0.79865,-0.890712 -1.07024,-1.484524 -0.27159,-0.593813 -0.40739,-1.328013 -0.40739,-2.202621 0,-0.699687 0.1358,-1.376347 0.40739,-2.030001 0.27159,-0.653655 0.66745,-1.233649 1.18762,-1.740001 0.52016,-0.506353 1.15999,-0.911428 1.91952,-1.215239 0.75953,-0.303812 1.63182,-0.455715 2.61691,-0.455715 1.10477,0 2.11055,0.174919 3.01738,0.524762 0.90683,0.349843 1.70547,0.856188 2.39595,1.519049 z m 12.12937,14.444771 h 8.56191 v 2.250954 H 183.03695 V 19.549578 h 2.66524 z m 28.31414,-17.538107 v 2.181907 h -9.51476 v 6.573337 h 7.70572 v 2.099049 h -7.70572 v 6.752862 h 9.52857 l -0.0138,2.181906 H 201.82252 V 19.549578 Z m 11.02461,11.53096 v 8.258101 h -2.66523 V 19.549578 h 5.59286 c 1.25207,0 2.3338,0.126587 3.24524,0.379763 0.91143,0.253176 1.66404,0.619125 2.25785,1.097857 0.59382,0.478733 1.03342,1.056426 1.31881,1.733097 0.2854,0.67667 0.4281,1.433886 0.4281,2.271668 0,0.699686 -0.11047,1.353331 -0.33143,1.960954 -0.22095,0.607622 -0.54087,1.153093 -0.95976,1.636429 -0.41889,0.483336 -0.92984,0.897618 -1.53286,1.242858 -0.60302,0.34524 -1.28658,0.600714 -2.05072,0.766429 0.34985,0.220954 0.64445,0.501745 0.88381,0.842382 L 237,39.338639 h -2.37524 c -0.48794,0 -0.84698,-0.188728 -1.07714,-0.566191 l -5.13715,-7.070481 c -0.15651,-0.220953 -0.32452,-0.379761 -0.50405,-0.476429 -0.17952,-0.09667 -0.45801,-0.145 -0.83547,-0.145 z m 0,-1.947144 h 2.81715 c 0.77334,0 1.4569,-0.09436 2.05072,-0.283095 0.59381,-0.188731 1.09095,-0.455713 1.49142,-0.800953 0.40048,-0.34524 0.70199,-0.75722 0.90453,-1.235953 0.20254,-0.478733 0.30381,-1.008093 0.30381,-1.588097 0,-1.178419 -0.38666,-2.066823 -1.16,-2.665239 -0.77334,-0.598416 -1.93333,-0.89762 -3.48,-0.89762 h -2.92763 z"
       id="path-4" />
    <path
       d="m 85.016721,50.711728 c -2.983043,1.491522 -5.621125,2.983043 -9.775546,2.983043 h -0.615469 l -4.534583,-0.01209 0.01038,0.01209 h -4.285514 l -0.02417,-0.02355 -48.712543,-0.129848 C 7.6933717,53.694771 0,46.638587 0,38.048449 0.15386743,30.685474 5.5392276,24.242871 12.924865,22.862313 14.309671,13.658594 22.926248,6.6024098 33.235366,6.6024098 c 1.384807,0 2.769614,0.1533953 4.000553,0.3067906 4.616023,-4.448464 10.924588,-7.05618438 17.540888,-6.90278906 13.232599,0 24.003319,9.81730006 24.003319,21.93552966 v 0.613581 c 7.847239,1.380558 13.694202,7.823161 13.694202,15.339532 0,3.374697 -2.32042,7.225911 -4.474564,9.833631 L 75.470984,35.796514 v -4.354151 c 1.296909,-0.634326 2.18925,-1.959959 2.18925,-3.492549 0,-2.148898 -1.754329,-3.890925 -3.918404,-3.890925 -2.164075,0 -3.918404,1.742027 -3.918404,3.890925 0,1.535489 0.89572,2.863238 2.196615,3.496141 v 0.698903 l -4.280018,-4.320269 v -4.217851 c 1.239366,-0.653464 2.083403,-1.948243 2.083403,-3.438775 0,-2.148898 -1.754329,-3.890925 -3.918403,-3.890925 -2.164075,0 -3.918404,1.742027 -3.918404,3.890925 0,1.386595 0.730429,2.603785 1.830054,3.29287 v 0.40351 l -5.364039,-5.095985 c 0.255681,-0.516904 0.399262,-1.098369 0.399262,-1.713135 0,-2.148899 -1.754329,-3.890925 -3.918404,-3.890925 -2.164074,0 -3.918404,1.742026 -3.918404,3.890925 0,2.148899 1.75433,3.890926 3.918404,3.890926 0.306499,0 0.604778,-0.03494 0.891018,-0.101038 z m -14.925598,2.970956 -4.27513,-4.976795 v -8.591545 c 1.431279,-0.579405 2.440072,-1.974968 2.440072,-3.604494 0,-2.148899 -1.754329,-3.890925 -3.918404,-3.890925 -2.164074,0 -3.918404,1.742026 -3.918404,3.890925 0,1.531594 0.891182,2.8565 2.186723,3.491312 v 5.464525 l -4.636687,-4.680291 v -9.2271 c 1.436522,-0.576969 2.449964,-1.975204 2.449964,-3.608482 0,-2.148898 -1.754329,-3.890925 -3.918403,-3.890925 -2.164075,0 -3.918404,1.742027 -3.918404,3.890925 0,1.518595 0.876118,2.833996 2.153823,3.474999 h -0.07747 v 1.080067 l -3.109535,-3.240201 v -5.040314 l -6.21341,-5.958251 c 0.125565,-0.381104 0.193467,-0.788124 0.193467,-1.210891 0,-2.148899 -1.754329,-3.890925 -3.918403,-3.890925 -2.164075,0 -3.918404,1.742026 -3.918404,3.890925 0,2.148899 1.754329,3.890926 3.918404,3.890926 0.406365,0 0.798283,-0.06142 1.16685,-0.175435 l 5.204815,5.253763 v 4.680291 l 6.063358,6.480404 v 5.040314 L 65.791828,53.671224 Z M 41.61092,19.389778 c -1.298445,0 -2.351043,-1.045216 -2.351043,-2.334555 0,-1.289339 1.052598,-2.334555 2.351043,-2.334555 1.298444,0 2.351042,1.045216 2.351042,2.334555 0,1.289339 -1.052598,2.334555 -2.351042,2.334555 z m 13.322572,0 c -1.298445,0 -2.351042,-1.045216 -2.351042,-2.334555 0,-1.289339 1.052597,-2.334555 2.351042,-2.334555 1.298445,0 2.351042,1.045216 2.351042,2.334555 0,1.289339 -1.052597,2.334555 -2.351042,2.334555 z m 1.567362,10.894592 c -1.298445,0 -2.351043,-1.045216 -2.351043,-2.334556 0,-1.289339 1.052598,-2.334555 2.351043,-2.334555 1.298444,0 2.351042,1.045216 2.351042,2.334555 0,1.28934 -1.052598,2.334556 -2.351042,2.334556 z m 9.404169,-7.781851 c -1.298445,0 -2.351043,-1.045216 -2.351043,-2.334556 0,-1.289339 1.052598,-2.334555 2.351043,-2.334555 1.298444,0 2.351042,1.045216 2.351042,2.334555 0,1.28934 -1.052598,2.334556 -2.351042,2.334556 z m 7.836807,7.781851 c -1.298445,0 -2.351042,-1.045216 -2.351042,-2.334556 0,-1.289339 1.052597,-2.334555 2.351042,-2.334555 1.298445,0 2.351042,1.045216 2.351042,2.334555 0,1.28934 -1.052597,2.334556 -2.351042,2.334556 z m -9.404169,8.560036 c -1.298445,0 -2.351042,-1.045216 -2.351042,-2.334556 0,-1.289339 1.052597,-2.334555 2.351042,-2.334555 1.298445,0 2.351042,1.045216 2.351042,2.334555 0,1.28934 -1.052597,2.334556 -2.351042,2.334556 z m 79.563069,0.494233 h -2.07143 c -0.23936,0 -0.43269,-0.05984 -0.58,-0.179524 -0.1473,-0.119683 -0.25777,-0.271586 -0.33143,-0.455715 l -1.85047,-4.778098 h -8.87953 l -1.85048,4.778098 c -0.0552,0.165716 -0.16111,0.313016 -0.31762,0.441905 -0.15651,0.12889 -0.34984,0.193334 -0.58,0.193334 h -2.07143 l 7.91286,-19.789061 h 2.70667 z m -12.96715,-7.346671 h 7.3881 l -3.10714,-8.050958 c -0.10127,-0.239367 -0.20024,-0.515554 -0.29691,-0.828572 -0.0967,-0.313018 -0.19563,-0.649046 -0.2969,-1.008096 -0.0921,0.35905 -0.18643,0.69738 -0.2831,1.015001 -0.0967,0.317621 -0.19563,0.59611 -0.2969,0.835477 z m 22.85938,7.346671 h -2.67905 V 19.549578 h 2.67905 z m 19.77986,-16.695725 c -0.0829,0.138096 -0.17262,0.241666 -0.26929,0.310714 -0.0967,0.06905 -0.21405,0.103572 -0.35214,0.103572 -0.15651,0 -0.34064,-0.07825 -0.55238,-0.234762 -0.21175,-0.156509 -0.47643,-0.329126 -0.79405,-0.517858 -0.31762,-0.188731 -0.69968,-0.361348 -1.14619,-0.517857 -0.44651,-0.156509 -0.98738,-0.234762 -1.62262,-0.234762 -0.59842,0 -1.12548,0.08056 -1.5812,0.241667 -0.45571,0.161112 -0.83777,0.379761 -1.14619,0.655952 -0.30841,0.276193 -0.54087,0.600713 -0.69738,0.973572 -0.15651,0.37286 -0.23476,0.775634 -0.23476,1.208335 0,0.552384 0.13579,1.010395 0.40738,1.374048 0.27159,0.363653 0.63063,0.674364 1.07715,0.932144 0.44651,0.257779 0.95285,0.481031 1.51904,0.669762 0.5662,0.188731 1.14619,0.384364 1.74,0.586905 0.59382,0.202541 1.17381,0.430396 1.74001,0.683572 0.56619,0.253176 1.07253,0.573094 1.51904,0.959762 0.44652,0.386669 0.80556,0.860792 1.07715,1.422382 0.27159,0.561591 0.40738,1.252061 0.40738,2.07143 0,0.865402 -0.1473,1.677855 -0.44191,2.437383 -0.2946,0.759528 -0.72499,1.420077 -1.29119,1.981668 -0.56619,0.56159 -1.26126,1.003491 -2.08524,1.325715 -0.82397,0.322224 -1.76071,0.483334 -2.81024,0.483334 -1.28889,0 -2.45809,-0.232459 -3.50762,-0.697382 -1.04953,-0.464923 -1.94714,-1.093251 -2.69286,-1.885001 l 0.77334,-1.270477 c 0.0737,-0.101271 0.16341,-0.186429 0.26928,-0.255476 0.10588,-0.06905 0.22326,-0.103572 0.35215,-0.103572 0.11968,0 0.25547,0.04833 0.40738,0.145 0.1519,0.09667 0.32452,0.21865 0.51786,0.365953 0.19333,0.147302 0.41428,0.308412 0.66285,0.483333 0.24858,0.174922 0.53167,0.336032 0.84929,0.483334 0.31762,0.147302 0.67897,0.269285 1.08405,0.365953 0.40508,0.09667 0.86079,0.145 1.36714,0.145 0.63524,0 1.20143,-0.08746 1.69857,-0.262381 0.49715,-0.174922 0.91834,-0.42119 1.26358,-0.73881 0.34524,-0.317621 0.60992,-0.69738 0.79404,-1.139287 0.18413,-0.441907 0.2762,-0.934442 0.2762,-1.47762 0,-0.598416 -0.1358,-1.088649 -0.40739,-1.470715 -0.27159,-0.382066 -0.62833,-0.701983 -1.07023,-0.959763 -0.44191,-0.257779 -0.94826,-0.476428 -1.51905,-0.655952 -0.5708,-0.179525 -1.1508,-0.36365 -1.74001,-0.552382 -0.5892,-0.188731 -1.1692,-0.40738 -1.74,-0.655953 -0.57079,-0.248572 -1.07714,-0.570792 -1.51904,-0.966667 -0.44191,-0.395875 -0.79865,-0.890712 -1.07024,-1.484524 -0.27159,-0.593813 -0.40739,-1.328013 -0.40739,-2.202621 0,-0.699687 0.1358,-1.376347 0.40739,-2.030001 0.27159,-0.653655 0.66745,-1.233649 1.18762,-1.740001 0.52016,-0.506353 1.15999,-0.911428 1.91952,-1.215239 0.75953,-0.303812 1.63182,-0.455715 2.61691,-0.455715 1.10477,0 2.11055,0.174919 3.01738,0.524762 0.90683,0.349843 1.70547,0.856188 2.39595,1.519049 z m 12.12937,14.444771 h 8.56191 v 2.250954 H 183.03695 V 19.549578 h 2.66524 z m 28.31414,-17.538107 v 2.181907 h -9.51476 v 6.573337 h 7.70572 v 2.099049 h -7.70572 v 6.752862 h 9.52857 l -0.0138,2.181906 H 201.82252 V 19.549578 Z m 11.02461,11.53096 v 8.258101 h -2.66523 V 19.549578 h 5.59286 c 1.25207,0 2.3338,0.126587 3.24524,0.379763 0.91143,0.253176 1.66404,0.619125 2.25785,1.097857 0.59382,0.478733 1.03342,1.056426 1.31881,1.733097 0.2854,0.67667 0.4281,1.433886 0.4281,2.271668 0,0.699686 -0.11047,1.353331 -0.33143,1.960954 -0.22095,0.607622 -0.54087,1.153093 -0.95976,1.636429 -0.41889,0.483336 -0.92984,0.897618 -1.53286,1.242858 -0.60302,0.34524 -1.28658,0.600714 -2.05072,0.766429 0.34985,0.220954 0.64445,0.501745 0.88381,0.842382 L 237,39.338639 h -2.37524 c -0.48794,0 -0.84698,-0.188728 -1.07714,-0.566191 l -5.13715,-7.070481 c -0.15651,-0.220953 -0.32452,-0.379761 -0.50405,-0.476429 -0.17952,-0.09667 -0.45801,-0.145 -0.83547,-0.145 z m 0,-1.947144 h 2.81715 c 0.77334,0 1.4569,-0.09436 2.05072,-0.283095 0.59381,-0.188731 1.09095,-0.455713 1.49142,-0.800953 0.40048,-0.34524 0.70199,-0.75722 0.90453,-1.235953 0.20254,-0.478733 0.30381,-1.008093 0.30381,-1.588097 0,-1.178419 -0.38666,-2.066823 -1.16,-2.665239 -0.77334,-0.598416 -1.93333,-0.89762 -3.48,-0.89762 h -2.92763 z"
       id="path-6" />
    <path
       d="m 85.016721,50.711728 c -2.983043,1.491522 -5.621125,2.983043 -9.775546,2.983043 h -0.615469 l -4.534583,-0.01209 0.01038,0.01209 h -4.285514 l -0.02417,-0.02355 -48.712543,-0.129848 C 7.6933717,53.694771 0,46.638587 0,38.048449 0.15386743,30.685474 5.5392276,24.242871 12.924865,22.862313 14.309671,13.658594 22.926248,6.6024098 33.235366,6.6024098 c 1.384807,0 2.769614,0.1533953 4.000553,0.3067906 4.616023,-4.448464 10.924588,-7.05618438 17.540888,-6.90278906 13.232599,0 24.003319,9.81730006 24.003319,21.93552966 v 0.613581 c 7.847239,1.380558 13.694202,7.823161 13.694202,15.339532 0,3.374697 -2.32042,7.225911 -4.474564,9.833631 L 75.470984,35.796514 v -4.354151 c 1.296909,-0.634326 2.18925,-1.959959 2.18925,-3.492549 0,-2.148898 -1.754329,-3.890925 -3.918404,-3.890925 -2.164075,0 -3.918404,1.742027 -3.918404,3.890925 0,1.535489 0.89572,2.863238 2.196615,3.496141 v 0.698903 l -4.280018,-4.320269 v -4.217851 c 1.239366,-0.653464 2.083403,-1.948243 2.083403,-3.438775 0,-2.148898 -1.754329,-3.890925 -3.918403,-3.890925 -2.164075,0 -3.918404,1.742027 -3.918404,3.890925 0,1.386595 0.730429,2.603785 1.830054,3.29287 v 0.40351 l -5.364039,-5.095985 c 0.255681,-0.516904 0.399262,-1.098369 0.399262,-1.713135 0,-2.148899 -1.754329,-3.890925 -3.918404,-3.890925 -2.164074,0 -3.918404,1.742026 -3.918404,3.890925 0,2.148899 1.75433,3.890926 3.918404,3.890926 0.306499,0 0.604778,-0.03494 0.891018,-0.101038 z m -14.925598,2.970956 -4.27513,-4.976795 v -8.591545 c 1.431279,-0.579405 2.440072,-1.974968 2.440072,-3.604494 0,-2.148899 -1.754329,-3.890925 -3.918404,-3.890925 -2.164074,0 -3.918404,1.742026 -3.918404,3.890925 0,1.531594 0.891182,2.8565 2.186723,3.491312 v 5.464525 l -4.636687,-4.680291 v -9.2271 c 1.436522,-0.576969 2.449964,-1.975204 2.449964,-3.608482 0,-2.148898 -1.754329,-3.890925 -3.918403,-3.890925 -2.164075,0 -3.918404,1.742027 -3.918404,3.890925 0,1.518595 0.876118,2.833996 2.153823,3.474999 h -0.07747 v 1.080067 l -3.109535,-3.240201 v -5.040314 l -6.21341,-5.958251 c 0.125565,-0.381104 0.193467,-0.788124 0.193467,-1.210891 0,-2.148899 -1.754329,-3.890925 -3.918403,-3.890925 -2.164075,0 -3.918404,1.742026 -3.918404,3.890925 0,2.148899 1.754329,3.890926 3.918404,3.890926 0.406365,0 0.798283,-0.06142 1.16685,-0.175435 l 5.204815,5.253763 v 4.680291 l 6.063358,6.480404 v 5.040314 L 65.791828,53.671224 Z M 41.61092,19.389778 c -1.298445,0 -2.351043,-1.045216 -2.351043,-2.334555 0,-1.289339 1.052598,-2.334555 2.351043,-2.334555 1.298444,0 2.351042,1.045216 2.351042,2.334555 0,1.289339 -1.052598,2.334555 -2.351042,2.334555 z m 13.322572,0 c -1.298445,0 -2.351042,-1.045216 -2.351042,-2.334555 0,-1.289339 1.052597,-2.334555 2.351042,-2.334555 1.298445,0 2.351042,1.045216 2.351042,2.334555 0,1.289339 -1.052597,2.334555 -2.351042,2.334555 z m 1.567362,10.894592 c -1.298445,0 -2.351043,-1.045216 -2.351043,-2.334556 0,-1.289339 1.052598,-2.334555 2.351043,-2.334555 1.298444,0 2.351042,1.045216 2.351042,2.334555 0,1.28934 -1.052598,2.334556 -2.351042,2.334556 z m 9.404169,-7.781851 c -1.298445,0 -2.351043,-1.045216 -2.351043,-2.334556 0,-1.289339 1.052598,-2.334555 2.351043,-2.334555 1.298444,0 2.351042,1.045216 2.351042,2.334555 0,1.28934 -1.052598,2.334556 -2.351042,2.334556 z m 7.836807,7.781851 c -1.298445,0 -2.351042,-1.045216 -2.351042,-2.334556 0,-1.289339 1.052597,-2.334555 2.351042,-2.334555 1.298445,0 2.351042,1.045216 2.351042,2.334555 0,1.28934 -1.052597,2.334556 -2.351042,2.334556 z m -9.404169,8.560036 c -1.298445,0 -2.351042,-1.045216 -2.351042,-2.334556 0,-1.289339 1.052597,-2.334555 2.351042,-2.334555 1.298445,0 2.351042,1.045216 2.351042,2.334555 0,1.28934 -1.052597,2.334556 -2.351042,2.334556 z m 79.563069,0.494233 h -2.07143 c -0.23936,0 -0.43269,-0.05984 -0.58,-0.179524 -0.1473,-0.119683 -0.25777,-0.271586 -0.33143,-0.455715 l -1.85047,-4.778098 h -8.87953 l -1.85048,4.778098 c -0.0552,0.165716 -0.16111,0.313016 -0.31762,0.441905 -0.15651,0.12889 -0.34984,0.193334 -0.58,0.193334 h -2.07143 l 7.91286,-19.789061 h 2.70667 z m -12.96715,-7.346671 h 7.3881 l -3.10714,-8.050958 c -0.10127,-0.239367 -0.20024,-0.515554 -0.29691,-0.828572 -0.0967,-0.313018 -0.19563,-0.649046 -0.2969,-1.008096 -0.0921,0.35905 -0.18643,0.69738 -0.2831,1.015001 -0.0967,0.317621 -0.19563,0.59611 -0.2969,0.835477 z m 22.85938,7.346671 h -2.67905 V 19.549578 h 2.67905 z m 19.77986,-16.695725 c -0.0829,0.138096 -0.17262,0.241666 -0.26929,0.310714 -0.0967,0.06905 -0.21405,0.103572 -0.35214,0.103572 -0.15651,0 -0.34064,-0.07825 -0.55238,-0.234762 -0.21175,-0.156509 -0.47643,-0.329126 -0.79405,-0.517858 -0.31762,-0.188731 -0.69968,-0.361348 -1.14619,-0.517857 -0.44651,-0.156509 -0.98738,-0.234762 -1.62262,-0.234762 -0.59842,0 -1.12548,0.08056 -1.5812,0.241667 -0.45571,0.161112 -0.83777,0.379761 -1.14619,0.655952 -0.30841,0.276193 -0.54087,0.600713 -0.69738,0.973572 -0.15651,0.37286 -0.23476,0.775634 -0.23476,1.208335 0,0.552384 0.13579,1.010395 0.40738,1.374048 0.27159,0.363653 0.63063,0.674364 1.07715,0.932144 0.44651,0.257779 0.95285,0.481031 1.51904,0.669762 0.5662,0.188731 1.14619,0.384364 1.74,0.586905 0.59382,0.202541 1.17381,0.430396 1.74001,0.683572 0.56619,0.253176 1.07253,0.573094 1.51904,0.959762 0.44652,0.386669 0.80556,0.860792 1.07715,1.422382 0.27159,0.561591 0.40738,1.252061 0.40738,2.07143 0,0.865402 -0.1473,1.677855 -0.44191,2.437383 -0.2946,0.759528 -0.72499,1.420077 -1.29119,1.981668 -0.56619,0.56159 -1.26126,1.003491 -2.08524,1.325715 -0.82397,0.322224 -1.76071,0.483334 -2.81024,0.483334 -1.28889,0 -2.45809,-0.232459 -3.50762,-0.697382 -1.04953,-0.464923 -1.94714,-1.093251 -2.69286,-1.885001 l 0.77334,-1.270477 c 0.0737,-0.101271 0.16341,-0.186429 0.26928,-0.255476 0.10588,-0.06905 0.22326,-0.103572 0.35215,-0.103572 0.11968,0 0.25547,0.04833 0.40738,0.145 0.1519,0.09667 0.32452,0.21865 0.51786,0.365953 0.19333,0.147302 0.41428,0.308412 0.66285,0.483333 0.24858,0.174922 0.53167,0.336032 0.84929,0.483334 0.31762,0.147302 0.67897,0.269285 1.08405,0.365953 0.40508,0.09667 0.86079,0.145 1.36714,0.145 0.63524,0 1.20143,-0.08746 1.69857,-0.262381 0.49715,-0.174922 0.91834,-0.42119 1.26358,-0.73881 0.34524,-0.317621 0.60992,-0.69738 0.79404,-1.139287 0.18413,-0.441907 0.2762,-0.934442 0.2762,-1.47762 0,-0.598416 -0.1358,-1.088649 -0.40739,-1.470715 -0.27159,-0.382066 -0.62833,-0.701983 -1.07023,-0.959763 -0.44191,-0.257779 -0.94826,-0.476428 -1.51905,-0.655952 -0.5708,-0.179525 -1.1508,-0.36365 -1.74001,-0.552382 -0.5892,-0.188731 -1.1692,-0.40738 -1.74,-0.655953 -0.57079,-0.248572 -1.07714,-0.570792 -1.51904,-0.966667 -0.44191,-0.395875 -0.79865,-0.890712 -1.07024,-1.484524 -0.27159,-0.593813 -0.40739,-1.328013 -0.40739,-2.202621 0,-0.699687 0.1358,-1.376347 0.40739,-2.030001 0.27159,-0.653655 0.66745,-1.233649 1.18762,-1.740001 0.52016,-0.506353 1.15999,-0.911428 1.91952,-1.215239 0.75953,-0.303812 1.63182,-0.455715 2.61691,-0.455715 1.10477,0 2.11055,0.174919 3.01738,0.524762 0.90683,0.349843 1.70547,0.856188 2.39595,1.519049 z m 12.12937,14.444771 h 8.56191 v 2.250954 H 183.03695 V 19.549578 h 2.66524 z m 28.31414,-17.538107 v 2.181907 h -9.51476 v 6.573337 h 7.70572 v 2.099049 h -7.70572 v 6.752862 h 9.52857 l -0.0138,2.181906 H 201.82252 V 19.549578 Z m 11.02461,11.53096 v 8.258101 h -2.66523 V 19.549578 h 5.59286 c 1.25207,0 2.3338,0.126587 3.24524,0.379763 0.91143,0.253176 1.66404,0.619125 2.25785,1.097857 0.59382,0.478733 1.03342,1.056426 1.31881,1.733097 0.2854,0.67667 0.4281,1.433886 0.4281,2.271668 0,0.699686 -0.11047,1.353331 -0.33143,1.960954 -0.22095,0.607622 -0.54087,1.153093 -0.95976,1.636429 -0.41889,0.483336 -0.92984,0.897618 -1.53286,1.242858 -0.60302,0.34524 -1.28658,0.600714 -2.05072,0.766429 0.34985,0.220954 0.64445,0.501745 0.88381,0.842382 L 237,39.338639 h -2.37524 c -0.48794,0 -0.84698,-0.188728 -1.07714,-0.566191 l -5.13715,-7.070481 c -0.15651,-0.220953 -0.32452,-0.379761 -0.50405,-0.476429 -0.17952,-0.09667 -0.45801,-0.145 -0.83547,-0.145 z m 0,-1.947144 h 2.81715 c 0.77334,0 1.4569,-0.09436 2.05072,-0.283095 0.59381,-0.188731 1.09095,-0.455713 1.49142,-0.800953 0.40048,-0.34524 0.70199,-0.75722 0.90453,-1.235953 0.20254,-0.478733 0.30381,-1.008093 0.30381,-1.588097 0,-1.178419 -0.38666,-2.066823 -1.16,-2.665239 -0.77334,-0.598416 -1.93333,-0.89762 -3.48,-0.89762 h -2.92763 z"
       id="path-8" />
    <path
       d="m 85.016721,50.711728 c -2.983043,1.491522 -5.621125,2.983043 -9.775546,2.983043 h -0.615469 l -4.534583,-0.01209 0.01038,0.01209 h -4.285514 l -0.02417,-0.02355 -48.712543,-0.129848 C 7.6933717,53.694771 0,46.638587 0,38.048449 0.15386743,30.685474 5.5392276,24.242871 12.924865,22.862313 14.309671,13.658594 22.926248,6.6024098 33.235366,6.6024098 c 1.384807,0 2.769614,0.1533953 4.000553,0.3067906 4.616023,-4.448464 10.924588,-7.05618438 17.540888,-6.90278906 13.232599,0 24.003319,9.81730006 24.003319,21.93552966 v 0.613581 c 7.847239,1.380558 13.694202,7.823161 13.694202,15.339532 0,3.374697 -2.32042,7.225911 -4.474564,9.833631 L 75.470984,35.796514 v -4.354151 c 1.296909,-0.634326 2.18925,-1.959959 2.18925,-3.492549 0,-2.148898 -1.754329,-3.890925 -3.918404,-3.890925 -2.164075,0 -3.918404,1.742027 -3.918404,3.890925 0,1.535489 0.89572,2.863238 2.196615,3.496141 v 0.698903 l -4.280018,-4.320269 v -4.217851 c 1.239366,-0.653464 2.083403,-1.948243 2.083403,-3.438775 0,-2.148898 -1.754329,-3.890925 -3.918403,-3.890925 -2.164075,0 -3.918404,1.742027 -3.918404,3.890925 0,1.386595 0.730429,2.603785 1.830054,3.29287 v 0.40351 l -5.364039,-5.095985 c 0.255681,-0.516904 0.399262,-1.098369 0.399262,-1.713135 0,-2.148899 -1.754329,-3.890925 -3.918404,-3.890925 -2.164074,0 -3.918404,1.742026 -3.918404,3.890925 0,2.148899 1.75433,3.890926 3.918404,3.890926 0.306499,0 0.604778,-0.03494 0.891018,-0.101038 z m -14.925598,2.970956 -4.27513,-4.976795 v -8.591545 c 1.431279,-0.579405 2.440072,-1.974968 2.440072,-3.604494 0,-2.148899 -1.754329,-3.890925 -3.918404,-3.890925 -2.164074,0 -3.918404,1.742026 -3.918404,3.890925 0,1.531594 0.891182,2.8565 2.186723,3.491312 v 5.464525 l -4.636687,-4.680291 v -9.2271 c 1.436522,-0.576969 2.449964,-1.975204 2.449964,-3.608482 0,-2.148898 -1.754329,-3.890925 -3.918403,-3.890925 -2.164075,0 -3.918404,1.742027 -3.918404,3.890925 0,1.518595 0.876118,2.833996 2.153823,3.474999 h -0.07747 v 1.080067 l -3.109535,-3.240201 v -5.040314 l -6.21341,-5.958251 c 0.125565,-0.381104 0.193467,-0.788124 0.193467,-1.210891 0,-2.148899 -1.754329,-3.890925 -3.918403,-3.890925 -2.164075,0 -3.918404,1.742026 -3.918404,3.890925 0,2.148899 1.754329,3.890926 3.918404,3.890926 0.406365,0 0.798283,-0.06142 1.16685,-0.175435 l 5.204815,5.253763 v 4.680291 l 6.063358,6.480404 v 5.040314 L 65.791828,53.671224 Z M 41.61092,19.389778 c -1.298445,0 -2.351043,-1.045216 -2.351043,-2.334555 0,-1.289339 1.052598,-2.334555 2.351043,-2.334555 1.298444,0 2.351042,1.045216 2.351042,2.334555 0,1.289339 -1.052598,2.334555 -2.351042,2.334555 z m 13.322572,0 c -1.298445,0 -2.351042,-1.045216 -2.351042,-2.334555 0,-1.289339 1.052597,-2.334555 2.351042,-2.334555 1.298445,0 2.351042,1.045216 2.351042,2.334555 0,1.289339 -1.052597,2.334555 -2.351042,2.334555 z m 1.567362,10.894592 c -1.298445,0 -2.351043,-1.045216 -2.351043,-2.334556 0,-1.289339 1.052598,-2.334555 2.351043,-2.334555 1.298444,0 2.351042,1.045216 2.351042,2.334555 0,1.28934 -1.052598,2.334556 -2.351042,2.334556 z m 9.404169,-7.781851 c -1.298445,0 -2.351043,-1.045216 -2.351043,-2.334556 0,-1.289339 1.052598,-2.334555 2.351043,-2.334555 1.298444,0 2.351042,1.045216 2.351042,2.334555 0,1.28934 -1.052598,2.334556 -2.351042,2.334556 z m 7.836807,7.781851 c -1.298445,0 -2.351042,-1.045216 -2.351042,-2.334556 0,-1.289339 1.052597,-2.334555 2.351042,-2.334555 1.298445,0 2.351042,1.045216 2.351042,2.334555 0,1.28934 -1.052597,2.334556 -2.351042,2.334556 z m -9.404169,8.560036 c -1.298445,0 -2.351042,-1.045216 -2.351042,-2.334556 0,-1.289339 1.052597,-2.334555 2.351042,-2.334555 1.298445,0 2.351042,1.045216 2.351042,2.334555 0,1.28934 -1.052597,2.334556 -2.351042,2.334556 z m 79.563069,0.494233 h -2.07143 c -0.23936,0 -0.43269,-0.05984 -0.58,-0.179524 -0.1473,-0.119683 -0.25777,-0.271586 -0.33143,-0.455715 l -1.85047,-4.778098 h -8.87953 l -1.85048,4.778098 c -0.0552,0.165716 -0.16111,0.313016 -0.31762,0.441905 -0.15651,0.12889 -0.34984,0.193334 -0.58,0.193334 h -2.07143 l 7.91286,-19.789061 h 2.70667 z m -12.96715,-7.346671 h 7.3881 l -3.10714,-8.050958 c -0.10127,-0.239367 -0.20024,-0.515554 -0.29691,-0.828572 -0.0967,-0.313018 -0.19563,-0.649046 -0.2969,-1.008096 -0.0921,0.35905 -0.18643,0.69738 -0.2831,1.015001 -0.0967,0.317621 -0.19563,0.59611 -0.2969,0.835477 z m 22.85938,7.346671 h -2.67905 V 19.549578 h 2.67905 z m 19.77986,-16.695725 c -0.0829,0.138096 -0.17262,0.241666 -0.26929,0.310714 -0.0967,0.06905 -0.21405,0.103572 -0.35214,0.103572 -0.15651,0 -0.34064,-0.07825 -0.55238,-0.234762 -0.21175,-0.156509 -0.47643,-0.329126 -0.79405,-0.517858 -0.31762,-0.188731 -0.69968,-0.361348 -1.14619,-0.517857 -0.44651,-0.156509 -0.98738,-0.234762 -1.62262,-0.234762 -0.59842,0 -1.12548,0.08056 -1.5812,0.241667 -0.45571,0.161112 -0.83777,0.379761 -1.14619,0.655952 -0.30841,0.276193 -0.54087,0.600713 -0.69738,0.973572 -0.15651,0.37286 -0.23476,0.775634 -0.23476,1.208335 0,0.552384 0.13579,1.010395 0.40738,1.374048 0.27159,0.363653 0.63063,0.674364 1.07715,0.932144 0.44651,0.257779 0.95285,0.481031 1.51904,0.669762 0.5662,0.188731 1.14619,0.384364 1.74,0.586905 0.59382,0.202541 1.17381,0.430396 1.74001,0.683572 0.56619,0.253176 1.07253,0.573094 1.51904,0.959762 0.44652,0.386669 0.80556,0.860792 1.07715,1.422382 0.27159,0.561591 0.40738,1.252061 0.40738,2.07143 0,0.865402 -0.1473,1.677855 -0.44191,2.437383 -0.2946,0.759528 -0.72499,1.420077 -1.29119,1.981668 -0.56619,0.56159 -1.26126,1.003491 -2.08524,1.325715 -0.82397,0.322224 -1.76071,0.483334 -2.81024,0.483334 -1.28889,0 -2.45809,-0.232459 -3.50762,-0.697382 -1.04953,-0.464923 -1.94714,-1.093251 -2.69286,-1.885001 l 0.77334,-1.270477 c 0.0737,-0.101271 0.16341,-0.186429 0.26928,-0.255476 0.10588,-0.06905 0.22326,-0.103572 0.35215,-0.103572 0.11968,0 0.25547,0.04833 0.40738,0.145 0.1519,0.09667 0.32452,0.21865 0.51786,0.365953 0.19333,0.147302 0.41428,0.308412 0.66285,0.483333 0.24858,0.174922 0.53167,0.336032 0.84929,0.483334 0.31762,0.147302 0.67897,0.269285 1.08405,0.365953 0.40508,0.09667 0.86079,0.145 1.36714,0.145 0.63524,0 1.20143,-0.08746 1.69857,-0.262381 0.49715,-0.174922 0.91834,-0.42119 1.26358,-0.73881 0.34524,-0.317621 0.60992,-0.69738 0.79404,-1.139287 0.18413,-0.441907 0.2762,-0.934442 0.2762,-1.47762 0,-0.598416 -0.1358,-1.088649 -0.40739,-1.470715 -0.27159,-0.382066 -0.62833,-0.701983 -1.07023,-0.959763 -0.44191,-0.257779 -0.94826,-0.476428 -1.51905,-0.655952 -0.5708,-0.179525 -1.1508,-0.36365 -1.74001,-0.552382 -0.5892,-0.188731 -1.1692,-0.40738 -1.74,-0.655953 -0.57079,-0.248572 -1.07714,-0.570792 -1.51904,-0.966667 -0.44191,-0.395875 -0.79865,-0.890712 -1.07024,-1.484524 -0.27159,-0.593813 -0.40739,-1.328013 -0.40739,-2.202621 0,-0.699687 0.1358,-1.376347 0.40739,-2.030001 0.27159,-0.653655 0.66745,-1.233649 1.18762,-1.740001 0.52016,-0.506353 1.15999,-0.911428 1.91952,-1.215239 0.75953,-0.303812 1.63182,-0.455715 2.61691,-0.455715 1.10477,0 2.11055,0.174919 3.01738,0.524762 0.90683,0.349843 1.70547,0.856188 2.39595,1.519049 z m 12.12937,14.444771 h 8.56191 v 2.250954 H 183.03695 V 19.549578 h 2.66524 z m 28.31414,-17.538107 v 2.181907 h -9.51476 v 6.573337 h 7.70572 v 2.099049 h -7.70572 v 6.752862 h 9.52857 l -0.0138,2.181906 H 201.82252 V 19.549578 Z m 11.02461,11.53096 v 8.258101 h -2.66523 V 19.549578 h 5.59286 c 1.25207,0 2.3338,0.126587 3.24524,0.379763 0.91143,0.253176 1.66404,0.619125 2.25785,1.097857 0.59382,0.478733 1.03342,1.056426 1.31881,1.733097 0.2854,0.67667 0.4281,1.433886 0.4281,2.271668 0,0.699686 -0.11047,1.353331 -0.33143,1.960954 -0.22095,0.607622 -0.54087,1.153093 -0.95976,1.636429 -0.41889,0.483336 -0.92984,0.897618 -1.53286,1.242858 -0.60302,0.34524 -1.28658,0.600714 -2.05072,0.766429 0.34985,0.220954 0.64445,0.501745 0.88381,0.842382 L 237,39.338639 h -2.37524 c -0.48794,0 -0.84698,-0.188728 -1.07714,-0.566191 l -5.13715,-7.070481 c -0.15651,-0.220953 -0.32452,-0.379761 -0.50405,-0.476429 -0.17952,-0.09667 -0.45801,-0.145 -0.83547,-0.145 z m 0,-1.947144 h 2.81715 c 0.77334,0 1.4569,-0.09436 2.05072,-0.283095 0.59381,-0.188731 1.09095,-0.455713 1.49142,-0.800953 0.40048,-0.34524 0.70199,-0.75722 0.90453,-1.235953 0.20254,-0.478733 0.30381,-1.008093 0.30381,-1.588097 0,-1.178419 -0.38666,-2.066823 -1.16,-2.665239 -0.77334,-0.598416 -1.93333,-0.89762 -3.48,-0.89762 h -2.92763 z"
       id="path-10" />
    <path
       d="m 85.016721,50.711728 c -2.983043,1.491522 -5.621125,2.983043 -9.775546,2.983043 h -0.615469 l -4.534583,-0.01209 0.01038,0.01209 h -4.285514 l -0.02417,-0.02355 -48.712543,-0.129848 C 7.6933717,53.694771 0,46.638587 0,38.048449 0.15386743,30.685474 5.5392276,24.242871 12.924865,22.862313 14.309671,13.658594 22.926248,6.6024098 33.235366,6.6024098 c 1.384807,0 2.769614,0.1533953 4.000553,0.3067906 4.616023,-4.448464 10.924588,-7.05618438 17.540888,-6.90278906 13.232599,0 24.003319,9.81730006 24.003319,21.93552966 v 0.613581 c 7.847239,1.380558 13.694202,7.823161 13.694202,15.339532 0,3.374697 -2.32042,7.225911 -4.474564,9.833631 L 75.470984,35.796514 v -4.354151 c 1.296909,-0.634326 2.18925,-1.959959 2.18925,-3.492549 0,-2.148898 -1.754329,-3.890925 -3.918404,-3.890925 -2.164075,0 -3.918404,1.742027 -3.918404,3.890925 0,1.535489 0.89572,2.863238 2.196615,3.496141 v 0.698903 l -4.280018,-4.320269 v -4.217851 c 1.239366,-0.653464 2.083403,-1.948243 2.083403,-3.438775 0,-2.148898 -1.754329,-3.890925 -3.918403,-3.890925 -2.164075,0 -3.918404,1.742027 -3.918404,3.890925 0,1.386595 0.730429,2.603785 1.830054,3.29287 v 0.40351 l -5.364039,-5.095985 c 0.255681,-0.516904 0.399262,-1.098369 0.399262,-1.713135 0,-2.148899 -1.754329,-3.890925 -3.918404,-3.890925 -2.164074,0 -3.918404,1.742026 -3.918404,3.890925 0,2.148899 1.75433,3.890926 3.918404,3.890926 0.306499,0 0.604778,-0.03494 0.891018,-0.101038 z m -14.925598,2.970956 -4.27513,-4.976795 v -8.591545 c 1.431279,-0.579405 2.440072,-1.974968 2.440072,-3.604494 0,-2.148899 -1.754329,-3.890925 -3.918404,-3.890925 -2.164074,0 -3.918404,1.742026 -3.918404,3.890925 0,1.531594 0.891182,2.8565 2.186723,3.491312 v 5.464525 l -4.636687,-4.680291 v -9.2271 c 1.436522,-0.576969 2.449964,-1.975204 2.449964,-3.608482 0,-2.148898 -1.754329,-3.890925 -3.918403,-3.890925 -2.164075,0 -3.918404,1.742027 -3.918404,3.890925 0,1.518595 0.876118,2.833996 2.153823,3.474999 h -0.07747 v 1.080067 l -3.109535,-3.240201 v -5.040314 l -6.21341,-5.958251 c 0.125565,-0.381104 0.193467,-0.788124 0.193467,-1.210891 0,-2.148899 -1.754329,-3.890925 -3.918403,-3.890925 -2.164075,0 -3.918404,1.742026 -3.918404,3.890925 0,2.148899 1.754329,3.890926 3.918404,3.890926 0.406365,0 0.798283,-0.06142 1.16685,-0.175435 l 5.204815,5.253763 v 4.680291 l 6.063358,6.480404 v 5.040314 L 65.791828,53.671224 Z M 41.61092,19.389778 c -1.298445,0 -2.351043,-1.045216 -2.351043,-2.334555 0,-1.289339 1.052598,-2.334555 2.351043,-2.334555 1.298444,0 2.351042,1.045216 2.351042,2.334555 0,1.289339 -1.052598,2.334555 -2.351042,2.334555 z m 13.322572,0 c -1.298445,0 -2.351042,-1.045216 -2.351042,-2.334555 0,-1.289339 1.052597,-2.334555 2.351042,-2.334555 1.298445,0 2.351042,1.045216 2.351042,2.334555 0,1.289339 -1.052597,2.334555 -2.351042,2.334555 z m 1.567362,10.894592 c -1.298445,0 -2.351043,-1.045216 -2.351043,-2.334556 0,-1.289339 1.052598,-2.334555 2.351043,-2.334555 1.298444,0 2.351042,1.045216 2.351042,2.334555 0,1.28934 -1.052598,2.334556 -2.351042,2.334556 z m 9.404169,-7.781851 c -1.298445,0 -2.351043,-1.045216 -2.351043,-2.334556 0,-1.289339 1.052598,-2.334555 2.351043,-2.334555 1.298444,0 2.351042,1.045216 2.351042,2.334555 0,1.28934 -1.052598,2.334556 -2.351042,2.334556 z m 7.836807,7.781851 c -1.298445,0 -2.351042,-1.045216 -2.351042,-2.334556 0,-1.289339 1.052597,-2.334555 2.351042,-2.334555 1.298445,0 2.351042,1.045216 2.351042,2.334555 0,1.28934 -1.052597,2.334556 -2.351042,2.334556 z m -9.404169,8.560036 c -1.298445,0 -2.351042,-1.045216 -2.351042,-2.334556 0,-1.289339 1.052597,-2.334555 2.351042,-2.334555 1.298445,0 2.351042,1.045216 2.351042,2.334555 0,1.28934 -1.052597,2.334556 -2.351042,2.334556 z m 79.563069,0.494233 h -2.07143 c -0.23936,0 -0.43269,-0.05984 -0.58,-0.179524 -0.1473,-0.119683 -0.25777,-0.271586 -0.33143,-0.455715 l -1.85047,-4.778098 h -8.87953 l -1.85048,4.778098 c -0.0552,0.165716 -0.16111,0.313016 -0.31762,0.441905 -0.15651,0.12889 -0.34984,0.193334 -0.58,0.193334 h -2.07143 l 7.91286,-19.789061 h 2.70667 z m -12.96715,-7.346671 h 7.3881 l -3.10714,-8.050958 c -0.10127,-0.239367 -0.20024,-0.515554 -0.29691,-0.828572 -0.0967,-0.313018 -0.19563,-0.649046 -0.2969,-1.008096 -0.0921,0.35905 -0.18643,0.69738 -0.2831,1.015001 -0.0967,0.317621 -0.19563,0.59611 -0.2969,0.835477 z m 22.85938,7.346671 h -2.67905 V 19.549578 h 2.67905 z m 19.77986,-16.695725 c -0.0829,0.138096 -0.17262,0.241666 -0.26929,0.310714 -0.0967,0.06905 -0.21405,0.103572 -0.35214,0.103572 -0.15651,0 -0.34064,-0.07825 -0.55238,-0.234762 -0.21175,-0.156509 -0.47643,-0.329126 -0.79405,-0.517858 -0.31762,-0.188731 -0.69968,-0.361348 -1.14619,-0.517857 -0.44651,-0.156509 -0.98738,-0.234762 -1.62262,-0.234762 -0.59842,0 -1.12548,0.08056 -1.5812,0.241667 -0.45571,0.161112 -0.83777,0.379761 -1.14619,0.655952 -0.30841,0.276193 -0.54087,0.600713 -0.69738,0.973572 -0.15651,0.37286 -0.23476,0.775634 -0.23476,1.208335 0,0.552384 0.13579,1.010395 0.40738,1.374048 0.27159,0.363653 0.63063,0.674364 1.07715,0.932144 0.44651,0.257779 0.95285,0.481031 1.51904,0.669762 0.5662,0.188731 1.14619,0.384364 1.74,0.586905 0.59382,0.202541 1.17381,0.430396 1.74001,0.683572 0.56619,0.253176 1.07253,0.573094 1.51904,0.959762 0.44652,0.386669 0.80556,0.860792 1.07715,1.422382 0.27159,0.561591 0.40738,1.252061 0.40738,2.07143 0,0.865402 -0.1473,1.677855 -0.44191,2.437383 -0.2946,0.759528 -0.72499,1.420077 -1.29119,1.981668 -0.56619,0.56159 -1.26126,1.003491 -2.08524,1.325715 -0.82397,0.322224 -1.76071,0.483334 -2.81024,0.483334 -1.28889,0 -2.45809,-0.232459 -3.50762,-0.697382 -1.04953,-0.464923 -1.94714,-1.093251 -2.69286,-1.885001 l 0.77334,-1.270477 c 0.0737,-0.101271 0.16341,-0.186429 0.26928,-0.255476 0.10588,-0.06905 0.22326,-0.103572 0.35215,-0.103572 0.11968,0 0.25547,0.04833 0.40738,0.145 0.1519,0.09667 0.32452,0.21865 0.51786,0.365953 0.19333,0.147302 0.41428,0.308412 0.66285,0.483333 0.24858,0.174922 0.53167,0.336032 0.84929,0.483334 0.31762,0.147302 0.67897,0.269285 1.08405,0.365953 0.40508,0.09667 0.86079,0.145 1.36714,0.145 0.63524,0 1.20143,-0.08746 1.69857,-0.262381 0.49715,-0.174922 0.91834,-0.42119 1.26358,-0.73881 0.34524,-0.317621 0.60992,-0.69738 0.79404,-1.139287 0.18413,-0.441907 0.2762,-0.934442 0.2762,-1.47762 0,-0.598416 -0.1358,-1.088649 -0.40739,-1.470715 -0.27159,-0.382066 -0.62833,-0.701983 -1.07023,-0.959763 -0.44191,-0.257779 -0.94826,-0.476428 -1.51905,-0.655952 -0.5708,-0.179525 -1.1508,-0.36365 -1.74001,-0.552382 -0.5892,-0.188731 -1.1692,-0.40738 -1.74,-0.655953 -0.57079,-0.248572 -1.07714,-0.570792 -1.51904,-0.966667 -0.44191,-0.395875 -0.79865,-0.890712 -1.07024,-1.484524 -0.27159,-0.593813 -0.40739,-1.328013 -0.40739,-2.202621 0,-0.699687 0.1358,-1.376347 0.40739,-2.030001 0.27159,-0.653655 0.66745,-1.233649 1.18762,-1.740001 0.52016,-0.506353 1.15999,-0.911428 1.91952,-1.215239 0.75953,-0.303812 1.63182,-0.455715 2.61691,-0.455715 1.10477,0 2.11055,0.174919 3.01738,0.524762 0.90683,0.349843 1.70547,0.856188 2.39595,1.519049 z m 12.12937,14.444771 h 8.56191 v 2.250954 H 183.03695 V 19.549578 h 2.66524 z m 28.31414,-17.538107 v 2.181907 h -9.51476 v 6.573337 h 7.70572 v 2.099049 h -7.70572 v 6.752862 h 9.52857 l -0.0138,2.181906 H 201.82252 V 19.549578 Z m 11.02461,11.53096 v 8.258101 h -2.66523 V 19.549578 h 5.59286 c 1.25207,0 2.3338,0.126587 3.24524,0.379763 0.91143,0.253176 1.66404,0.619125 2.25785,1.097857 0.59382,0.478733 1.03342,1.056426 1.31881,1.733097 0.2854,0.67667 0.4281,1.433886 0.4281,2.271668 0,0.699686 -0.11047,1.353331 -0.33143,1.960954 -0.22095,0.607622 -0.54087,1.153093 -0.95976,1.636429 -0.41889,0.483336 -0.92984,0.897618 -1.53286,1.242858 -0.60302,0.34524 -1.28658,0.600714 -2.05072,0.766429 0.34985,0.220954 0.64445,0.501745 0.88381,0.842382 L 237,39.338639 h -2.37524 c -0.48794,0 -0.84698,-0.188728 -1.07714,-0.566191 l -5.13715,-7.070481 c -0.15651,-0.220953 -0.32452,-0.379761 -0.50405,-0.476429 -0.17952,-0.09667 -0.45801,-0.145 -0.83547,-0.145 z m 0,-1.947144 h 2.81715 c 0.77334,0 1.4569,-0.09436 2.05072,-0.283095 0.59381,-0.188731 1.09095,-0.455713 1.49142,-0.800953 0.40048,-0.34524 0.70199,-0.75722 0.90453,-1.235953 0.20254,-0.478733 0.30381,-1.008093 0.30381,-1.588097 0,-1.178419 -0.38666,-2.066823 -1.16,-2.665239 -0.77334,-0.598416 -1.93333,-0.89762 -3.48,-0.89762 h -2.92763 z"
       id="path-12" />
    <linearGradient
       inkscape:collect="always"
       xlink:href="#linearGradient-3"
       id="linearGradient370"
       x1="34.947464"
       y1="4.1023815e-09"
       x2="34.947464"
       y2="69.894928"
       gradientTransform="scale(1.3017083,0.76822128)"
       gradientUnits="userSpaceOnUse" />
    <linearGradient
       inkscape:collect="always"
       xlink:href="#linearGradient-3"
       id="linearGradient372"
       x1="41.674633"
       y1="4.3892054e-09"
       x2="41.674633"
       y2="74.781731"
       gradientTransform="scale(1.392719,0.71801991)"
       gradientUnits="userSpaceOnUse" />
    <linearGradient
       inkscape:collect="always"
       xlink:href="#linearGradient-3"
       id="linearGradient374"
       x1="76.067589"
       y1="5.9660854"
       x2="76.067589"
       y2="47.728683"
       gradientUnits="userSpaceOnUse" />
    <linearGradient
       inkscape:collect="always"
       xlink:href="#linearGradient-3"
       id="linearGradient376"
       x1="114.0619"
       y1="4.698034e-09"
       x2="114.0619"
       y2="80.043442"
       gradientTransform="scale(1.490712,0.67082038)"
       gradientUnits="userSpaceOnUse" />
    <linearGradient
       inkscape:collect="always"
       xlink:href="#linearGradient-3"
       id="linearGradient378"
       x1="156.36674"
       y1="3.9364969e-09"
       x2="156.36674"
       y2="66.748184"
       gradientTransform="scale(1.2490722,0.80059426)"
       gradientUnits="userSpaceOnUse" />
    <linearGradient
       inkscape:collect="always"
       xlink:href="#linearGradient-3"
       id="linearGradient380"
       x1="214.77908"
       y1="5.9660854"
       x2="214.77908"
       y2="47.728683"
       gradientUnits="userSpaceOnUse" />
  </defs>
  <g
     id="Logo-PowerfulPrototyping"
     stroke="none"
     stroke-width="1"
     fill="none"
     fill-rule="evenodd"
     transform="translate(0,32.152614)">
    <g
       id="Logo">
      <g
         id="Oval-3-Copy-6-Clipped">
        <mask
           id="mask-2"
           fill="#ffffff">
          <use
             xlink:href="#path-1"
             id="use162" />
        </mask>
        <g
           id="g165" />
        <circle
           id="Oval-3-Copy-6"
           fill="url(#linearGradient-3)"
           fill-rule="nonzero"
           mask="url(#mask-2)"
           cx="31.321949"
           cy="41.7626"
           r="59.660858"
           style="fill:url(#linearGradient370)" />
      </g>
      <g
         id="Oval-3-Copy-5-Clipped">
        <mask
           id="mask-5"
           fill="#ffffff">
          <use
             xlink:href="#path-4"
             id="use169" />
        </mask>
        <g
           id="g172" />
        <circle
           id="Oval-3-Copy-5"
           fill="url(#linearGradient-3)"
           fill-rule="nonzero"
           mask="url(#mask-5)"
           cx="58.041054"
           cy="23.736063"
           r="52.07497"
           style="fill:url(#linearGradient372)" />
      </g>
      <g
         id="Oval-3-Copy-7-Clipped">
        <mask
           id="mask-7"
           fill="#ffffff">
          <use
             xlink:href="#path-6"
             id="use176" />
        </mask>
        <g
           id="g179" />
        <circle
           id="Oval-3-Copy-7"
           fill="url(#linearGradient-3)"
           fill-rule="nonzero"
           mask="url(#mask-7)"
           cx="76.067589"
           cy="26.847385"
           r="20.8813"
           style="fill:url(#linearGradient374)" />
      </g>
      <g
         id="Oval-3-Copy-10-Clipped">
        <mask
           id="mask-9"
           fill="#ffffff">
          <use
             xlink:href="#path-8"
             id="use183" />
        </mask>
        <g
           id="g186" />
        <circle
           id="Oval-3-Copy-10"
           fill="url(#linearGradient-3)"
           fill-rule="nonzero"
           mask="url(#mask-9)"
           cx="170.03345"
           cy="41.7626"
           r="59.660858"
           style="fill:url(#linearGradient376)" />
      </g>
      <g
         id="Oval-3-Copy-9-Clipped">
        <mask
           id="mask-11"
           fill="#ffffff">
          <use
             xlink:href="#path-10"
             id="use190" />
        </mask>
        <g
           id="g193" />
        <circle
           id="Oval-3-Copy-9"
           fill="url(#linearGradient-3)"
           fill-rule="nonzero"
           mask="url(#mask-11)"
           cx="205.70168"
           cy="1.363241"
           r="52.07497"
           style="fill:url(#linearGradient378)" />
      </g>
      <g
         id="Oval-3-Copy-8-Clipped">
        <mask
           id="mask-13"
           fill="#ffffff">
          <use
             xlink:href="#path-12"
             id="use197" />
        </mask>
        <g
           id="g200" />
        <circle
           id="Oval-3-Copy-8"
           fill="url(#linearGradient-3)"
           fill-rule="nonzero"
           mask="url(#mask-13)"
           cx="214.77908"
           cy="26.847385"
           r="20.8813"
           style="fill:url(#linearGradient380)" />
      </g>
    </g>
  </g>
  <metadata
     id="metadata368">
    <rdf:RDF>
      <cc:Work
         rdf:about="">
        <dc:title>AISLER_PowerfulPrototyping_Logo</dc:title>
      </cc:Work>
    </rdf:RDF>
  </metadata>
</svg>
