<?xml version="1.0" encoding="UTF-8"?>
<svg xmlns="http://www.w3.org/2000/svg" data-name="Ebene 1" width="77.803" height="41.396">
  <path d="M7.63 18.521a3.14 3.14 0 01-.756-2.482 3.293 3.293 0 01.731-2.459 2.497 2.497 0 011.775-.66 2.275 2.275 0 011.572.54 2.031 2.031 0 01.66 1.5.213.213 0 01-.205.24h-.636a.207.207 0 01-.227-.192.957.957 0 00-.36-.756A1.262 1.262 0 009.38 14a1.347 1.347 0 00-1.079.444 2.518 2.518 0 00-.312 1.595 2.584 2.584 0 00.3 1.56 1.349 1.349 0 001.104.48 1.302 1.302 0 00.839-.265.933.933 0 00.324-.732c0-.132.084-.203.228-.203h.683c.12 0 .18.084.18.24a1.964 1.964 0 01-.731 1.559 2.434 2.434 0 01-1.523.48 2.566 2.566 0 01-1.764-.637zM13.762 18.162a3.594 3.594 0 01-.444-2.123 3.594 3.594 0 01.444-2.123 2.335 2.335 0 012.039-.995 2.334 2.334 0 012.038.995 3.594 3.594 0 01.444 2.123 3.595 3.595 0 01-.444 2.123 2.334 2.334 0 01-2.038.995 2.335 2.335 0 01-2.04-.995zm3.142-.647a2.674 2.674 0 00.264-1.476 2.674 2.674 0 00-.264-1.476 1.362 1.362 0 00-2.207 0 2.68 2.68 0 00-.263 1.476 2.68 2.68 0 00.263 1.476 1.362 1.362 0 002.207 0zM20.421 19.037a.24.24 0 01-.24-.24v-.54a.24.24 0 01.24-.24h1.572a.113.113 0 00.12-.119v-6.237a.114.114 0 00-.12-.12h-1.451a.24.24 0 01-.24-.24v-.539a.24.24 0 01.24-.24h2.434a.24.24 0 01.24.24v7.136a.113.113 0 00.12.12h1.523a.24.24 0 01.24.24v.54a.24.24 0 01-.24.24zM27.021 19.037a.24.24 0 01-.24-.24v-.54a.24.24 0 01.24-.24h1.571a.113.113 0 00.12-.119v-6.237a.114.114 0 00-.12-.12h-1.45a.24.24 0 01-.241-.24v-.539a.24.24 0 01.24-.24h2.435a.24.24 0 01.24.24v7.136a.113.113 0 00.12.12h1.523a.24.24 0 01.24.24v.54a.24.24 0 01-.24.24zM34.017 18.605a3.26 3.26 0 01-.864-2.566 3.415 3.415 0 01.792-2.47 2.373 2.373 0 011.75-.648 2.346 2.346 0 011.692.611 2.58 2.58 0 01.684 1.896v.718a.24.24 0 01-.24.24h-3.406a.113.113 0 00-.12.12 1.562 1.562 0 00.491 1.296 1.361 1.361 0 00.876.276 1.426 1.426 0 00.875-.24 1.013 1.013 0 00.36-.516.272.272 0 01.276-.204h.611a.192.192 0 01.205.24 2.106 2.106 0 01-.792 1.38 2.505 2.505 0 01-1.535.42 2.307 2.307 0 01-1.655-.553zm2.89-3.142a.113.113 0 00.12-.12 1.56 1.56 0 00-.396-1.091 1.254 1.254 0 00-.935-.372 1.367 1.367 0 00-.984.372 1.488 1.488 0 00-.395 1.092.113.113 0 00.12.119zM40.628 18.521a3.141 3.141 0 01-.754-2.482 3.293 3.293 0 01.731-2.459 2.496 2.496 0 011.774-.66 2.274 2.274 0 011.572.54 2.03 2.03 0 01.66 1.5.213.213 0 01-.204.24h-.636a.207.207 0 01-.228-.192.954.954 0 00-.36-.756A1.26 1.26 0 0042.38 14a1.347 1.347 0 00-1.079.444 2.519 2.519 0 00-.311 1.595 2.584 2.584 0 00.3 1.56 1.348 1.348 0 001.103.48 1.302 1.302 0 00.839-.265.933.933 0 00.324-.732c0-.132.084-.203.228-.203h.683c.12 0 .18.084.18.24a1.964 1.964 0 01-.731 1.559 2.433 2.433 0 01-1.523.48 2.568 2.568 0 01-1.764-.637zM48.74 17.238a.84.84 0 101.678 0 .241.241 0 01.24-.24h.6a.24.24 0 01.24.24 1.919 1.919 0 11-3.838 0V14.3a.113.113 0 00-.12-.12h-1.2a.24.24 0 01-.239-.24v-.6a.24.24 0 01.24-.24h1.2a.113.113 0 00.119-.12v-1.858a.241.241 0 01.24-.24h.6a.241.241 0 01.24.24v1.858a.113.113 0 00.12.12h1.919a.24.24 0 01.24.24v.6a.24.24 0 01-.24.24h-1.92a.113.113 0 00-.12.12zM53.54 14.06a.24.24 0 01-.24-.24v-.54a.24.24 0 01.24-.239h2.435a.24.24 0 01.24.24v4.617a.113.113 0 00.12.12h1.523a.24.24 0 01.24.24v.54a.24.24 0 01-.24.24H53.42a.24.24 0 01-.24-.24v-.54a.241.241 0 01.24-.24h1.572a.113.113 0 00.119-.12V14.18a.113.113 0 00-.12-.12zm1.655-2.243a.19.19 0 01-.192-.192v-.91a.197.197 0 01.192-.193h.935a.197.197 0 01.193.192v.911a.19.19 0 01-.193.192zM61.675 19.037a.237.237 0 01-.227-.18l-2.087-5.445a.552.552 0 01-.048-.191c0-.096.096-.18.24-.18h.743a.225.225 0 01.228.18l1.392 3.994c.023.06.047.071.084.071.035 0 .06-.012.084-.071l1.39-3.994a.225.225 0 01.229-.18h.743c.143 0 .24.084.24.168a.554.554 0 01-.049.203l-2.074 5.445a.238.238 0 01-.229.18zM67.016 18.605a3.26 3.26 0 01-.863-2.566 3.417 3.417 0 01.79-2.47 2.373 2.373 0 011.752-.648 2.345 2.345 0 011.691.611 2.58 2.58 0 01.684 1.896v.718a.24.24 0 01-.24.24h-3.406a.113.113 0 00-.12.12 1.563 1.563 0 00.491 1.296 1.362 1.362 0 00.876.276 1.425 1.425 0 00.875-.24 1.015 1.015 0 00.36-.516.271.271 0 01.276-.204h.612a.19.19 0 01.204.24 2.108 2.108 0 01-.791 1.38 2.509 2.509 0 01-1.536.42 2.306 2.306 0 01-1.655-.553zm2.89-3.142a.114.114 0 00.12-.12 1.56 1.56 0 00-.396-1.091 1.253 1.253 0 00-.935-.372 1.368 1.368 0 00-.984.372 1.488 1.488 0 00-.395 1.092.113.113 0 00.12.119zM7.341 25.06a.24.24 0 01-.24-.24v-.54a.24.24 0 01.24-.239h2.435a.24.24 0 01.24.24v4.617a.113.113 0 00.12.12h1.523a.24.24 0 01.24.24v.54a.24.24 0 01-.24.24H7.222a.24.24 0 01-.24-.24v-.54a.24.24 0 01.24-.24h1.571a.113.113 0 00.12-.12V25.18a.113.113 0 00-.12-.12zm1.656-2.243a.19.19 0 01-.192-.192v-.911a.197.197 0 01.192-.192h.935a.197.197 0 01.192.192v.911a.19.19 0 01-.192.192zM13.714 30.037a.24.24 0 01-.24-.24V24.28a.24.24 0 01.24-.239h.528a.18.18 0 01.167.084c.072.12.12.275.312.275.264 0 .432-.48 1.511-.48a1.956 1.956 0 012.04 2.147v3.73a.24.24 0 01-.24.24h-.6a.24.24 0 01-.24-.24v-3.346c0-.888-.456-1.451-1.32-1.451a1.292 1.292 0 00-1.319 1.392v3.406a.24.24 0 01-.24.24zM20.83 29.521a3.14 3.14 0 01-.756-2.482 3.293 3.293 0 01.731-2.459 2.497 2.497 0 011.775-.66 2.275 2.275 0 011.571.54 2.031 2.031 0 01.66 1.5.213.213 0 01-.204.24h-.636a.207.207 0 01-.227-.192.955.955 0 00-.36-.756A1.262 1.262 0 0022.58 25a1.348 1.348 0 00-1.08.444 2.522 2.522 0 00-.311 1.595 2.584 2.584 0 00.3 1.56 1.349 1.349 0 001.103.48 1.302 1.302 0 00.84-.265.933.933 0 00.323-.732c0-.132.084-.203.228-.203h.684c.12 0 .18.084.18.24a1.964 1.964 0 01-.732 1.559 2.434 2.434 0 01-1.523.48 2.566 2.566 0 01-1.763-.637zM31.087 24.041a.24.24 0 01.24.24v5.517a.24.24 0 01-.24.24h-.528a.18.18 0 01-.168-.085c-.072-.12-.12-.275-.312-.275-.264 0-.432.48-1.511.48a1.956 1.956 0 01-2.039-2.147v-3.73a.24.24 0 01.24-.24h.6a.24.24 0 01.24.24v3.346a1.269 1.269 0 001.319 1.451 1.292 1.292 0 001.319-1.391V24.28a.24.24 0 01.24-.239zM34.437 29.701c-.096 0-.168.06-.24.252-.024.06-.072.084-.168.084h-.408a.24.24 0 01-.24-.24v-8.035a.24.24 0 01.24-.24h.6a.24.24 0 01.24.24v2.159c0 .275.06.384.215.384.216 0 .468-.384 1.26-.384a2.014 2.014 0 011.835 1.02 4.388 4.388 0 01.384 2.098 4.4 4.4 0 01-.372 2.087 2.117 2.117 0 01-1.943 1.031c-.972 0-1.152-.456-1.403-.456zm2.422-1.175a3.016 3.016 0 00.216-1.487 3.158 3.158 0 00-.216-1.487A1.197 1.197 0 0035.732 25a1.21 1.21 0 00-1.128.552 3.016 3.016 0 00-.215 1.487 3.016 3.016 0 00.215 1.487 1.427 1.427 0 002.255 0zM39.729 28.25c0-1.2.792-1.835 2.16-1.835h1.282a.113.113 0 00.12-.12v-.491c0-.612-.396-.936-1.115-.936-.696 0-1.103.288-1.103.804 0 .143-.084.204-.277.204h-.551a.215.215 0 01-.24-.24c0-1.08.803-1.715 2.183-1.715 1.427 0 2.183.659 2.183 1.919v3.958a.24.24 0 01-.24.24h-.408a.18.18 0 01-.168-.085c-.06-.107-.12-.252-.24-.252-.216 0-.516.456-1.403.456a1.935 1.935 0 01-2.183-1.907zm3.658-.348v-.383a.114.114 0 00-.12-.12h-1.259c-.792 0-1.164.264-1.164.828 0 .61.397.935 1.152.935.948 0 1.391-.408 1.391-1.26zM48.74 28.238a.84.84 0 101.678 0 .241.241 0 01.24-.24h.6a.24.24 0 01.24.24 1.919 1.919 0 11-3.838 0V25.3a.113.113 0 00-.12-.12h-1.2a.24.24 0 01-.239-.24v-.6a.24.24 0 01.24-.24h1.2a.113.113 0 00.119-.12v-1.858a.241.241 0 01.24-.24h.6a.241.241 0 01.24.24v1.858a.113.113 0 00.12.12h1.919a.24.24 0 01.24.24v.6a.24.24 0 01-.24.24h-1.92a.113.113 0 00-.12.12zM53.36 29.162a3.598 3.598 0 01-.444-2.123 3.598 3.598 0 01.444-2.123 2.587 2.587 0 014.078 0 3.598 3.598 0 01.443 2.123 3.598 3.598 0 01-.443 2.123 2.587 2.587 0 01-4.078 0zm3.142-.647a2.68 2.68 0 00.264-1.476 2.68 2.68 0 00-.264-1.476 1.362 1.362 0 00-2.207 0 2.68 2.68 0 00-.263 1.476 2.68 2.68 0 00.263 1.476 1.362 1.362 0 002.207 0zM61.16 26.512v3.286a.24.24 0 01-.24.24h-.6a.24.24 0 01-.24-.24V24.28a.24.24 0 01.24-.239h.468a.168.168 0 01.168.084c.072.168.12.396.311.396.276 0 .444-.6 1.571-.6a1.959 1.959 0 011.908 2.039.24.24 0 01-.24.24h-.612a.24.24 0 01-.24-.24c0-.576-.371-.96-1.115-.96a1.32 1.32 0 00-1.38 1.512z"></path>
</svg>
