<svg xmlns="http://www.w3.org/2000/svg" width="64.227" height="19.652" viewBox="0 0 64.227 19.652">
  <path id="ci-logo-white--solo" d="M7.63,18.522a3.14,3.14,0,0,1-.756-2.483,3.29,3.29,0,0,1,.731-2.458,2.5,2.5,0,0,1,1.775-.66,2.276,2.276,0,0,1,1.572.54,2.029,2.029,0,0,1,.66,1.5.213.213,0,0,1-.2.24h-.636a.207.207,0,0,1-.227-.192.955.955,0,0,0-.36-.755A1.262,1.262,0,0,0,9.38,14a1.346,1.346,0,0,0-1.079.444,2.522,2.522,0,0,0-.312,1.594,2.582,2.582,0,0,0,.3,1.56,1.349,1.349,0,0,0,1.1.48,1.3,1.3,0,0,0,.839-.264.93.93,0,0,0,.324-.732c0-.131.084-.2.228-.2h.683c.12,0,.18.084.18.24a1.962,1.962,0,0,1-.731,1.56,2.428,2.428,0,0,1-1.523.48,2.57,2.57,0,0,1-1.764-.636Zm6.132-.36a3.593,3.593,0,0,1-.444-2.123,3.591,3.591,0,0,1,.444-2.122,2.333,2.333,0,0,1,2.039-1,2.333,2.333,0,0,1,2.038,1,3.591,3.591,0,0,1,.444,2.122,3.593,3.593,0,0,1-.444,2.123,2.332,2.332,0,0,1-2.038,1,2.333,2.333,0,0,1-2.04-1Zm3.142-.648a2.672,2.672,0,0,0,.264-1.475,2.668,2.668,0,0,0-.264-1.475,1.362,1.362,0,0,0-2.207,0,2.673,2.673,0,0,0-.263,1.475,2.677,2.677,0,0,0,.263,1.475,1.362,1.362,0,0,0,2.207,0Zm3.517,1.524a.24.24,0,0,1-.24-.24v-.54a.24.24,0,0,1,.24-.24h1.572a.113.113,0,0,0,.12-.12V11.662a.113.113,0,0,0-.12-.12H20.542a.241.241,0,0,1-.24-.24v-.54a.241.241,0,0,1,.24-.24h2.434a.24.24,0,0,1,.24.24V17.9a.113.113,0,0,0,.12.12h1.523a.24.24,0,0,1,.24.24v.54a.24.24,0,0,1-.24.24Zm6.6,0a.24.24,0,0,1-.24-.24v-.54a.24.24,0,0,1,.24-.24h1.571a.113.113,0,0,0,.12-.12V11.662a.113.113,0,0,0-.12-.12h-1.45a.241.241,0,0,1-.241-.24v-.54a.241.241,0,0,1,.24-.24h2.435a.24.24,0,0,1,.24.24V17.9a.113.113,0,0,0,.12.12h1.523a.24.24,0,0,1,.24.24v.54a.24.24,0,0,1-.24.24Zm7-.432a3.263,3.263,0,0,1-.864-2.567,3.418,3.418,0,0,1,.792-2.471,2.373,2.373,0,0,1,1.75-.648,2.342,2.342,0,0,1,1.692.613,2.578,2.578,0,0,1,.684,1.894v.72a.241.241,0,0,1-.24.24H34.425a.113.113,0,0,0-.12.12A1.566,1.566,0,0,0,34.8,17.8a1.366,1.366,0,0,0,.876.276,1.426,1.426,0,0,0,.875-.24,1.021,1.021,0,0,0,.36-.515.271.271,0,0,1,.276-.2h.611a.191.191,0,0,1,.205.239,2.1,2.1,0,0,1-.792,1.38,2.512,2.512,0,0,1-1.535.42,2.307,2.307,0,0,1-1.655-.552Zm2.89-3.143a.113.113,0,0,0,.12-.12,1.556,1.556,0,0,0-.4-1.09,1.254,1.254,0,0,0-.935-.373,1.367,1.367,0,0,0-.984.372,1.486,1.486,0,0,0-.4,1.091.113.113,0,0,0,.12.12Zm3.721,3.059a3.142,3.142,0,0,1-.754-2.483,3.29,3.29,0,0,1,.731-2.458,2.5,2.5,0,0,1,1.774-.66,2.275,2.275,0,0,1,1.572.54,2.028,2.028,0,0,1,.66,1.5.213.213,0,0,1-.2.24h-.636a.207.207,0,0,1-.228-.192.952.952,0,0,0-.36-.755,1.26,1.26,0,0,0-.8-.252,1.347,1.347,0,0,0-1.079.444,2.522,2.522,0,0,0-.311,1.594,2.582,2.582,0,0,0,.3,1.56,1.348,1.348,0,0,0,1.1.48,1.3,1.3,0,0,0,.839-.264.93.93,0,0,0,.324-.732c0-.131.084-.2.228-.2h.683c.12,0,.18.084.18.24a1.962,1.962,0,0,1-.731,1.56,2.428,2.428,0,0,1-1.523.48,2.572,2.572,0,0,1-1.764-.636Zm8.112-1.283a.84.84,0,0,0,1.678,0,.24.24,0,0,1,.24-.24h.6a.24.24,0,0,1,.24.24,1.919,1.919,0,0,1-3.838,0V14.3a.113.113,0,0,0-.12-.12h-1.2a.24.24,0,0,1-.239-.24v-.6a.24.24,0,0,1,.24-.239h1.2a.114.114,0,0,0,.119-.12v-1.86a.241.241,0,0,1,.24-.24h.6a.241.241,0,0,1,.24.24v1.86a.114.114,0,0,0,.12.12h1.919a.24.24,0,0,1,.24.24v.6a.24.24,0,0,1-.24.24h-1.92a.113.113,0,0,0-.12.12Zm4.8-3.179a.24.24,0,0,1-.24-.24v-.54a.24.24,0,0,1,.24-.24h2.435a.24.24,0,0,1,.24.24V17.9a.113.113,0,0,0,.12.12h1.523a.24.24,0,0,1,.24.24v.54a.24.24,0,0,1-.24.24H53.42a.241.241,0,0,1-.24-.24v-.54a.24.24,0,0,1,.24-.24h1.572a.113.113,0,0,0,.119-.12V14.18a.113.113,0,0,0-.12-.12Zm1.655-2.243A.19.19,0,0,1,55,11.625v-.91a.2.2,0,0,1,.192-.193h.935a.2.2,0,0,1,.193.192v.911a.19.19,0,0,1-.193.192Zm6.48,7.221a.238.238,0,0,1-.227-.18l-2.087-5.445a.557.557,0,0,1-.048-.193c0-.1.1-.18.24-.18H60.3a.225.225,0,0,1,.228.18l1.392,3.994c.023.06.047.073.084.073s.06-.013.084-.073l1.39-3.994a.225.225,0,0,1,.229-.18h.743c.143,0,.24.085.24.169a.56.56,0,0,1-.049.2l-2.074,5.445a.239.239,0,0,1-.229.18Zm5.341-.432a3.263,3.263,0,0,1-.863-2.567,3.42,3.42,0,0,1,.79-2.471,2.373,2.373,0,0,1,1.752-.648,2.341,2.341,0,0,1,1.691.613,2.578,2.578,0,0,1,.684,1.894v.72a.24.24,0,0,1-.24.24H67.424a.113.113,0,0,0-.12.12,1.567,1.567,0,0,0,.491,1.3,1.368,1.368,0,0,0,.876.276,1.425,1.425,0,0,0,.875-.24,1.023,1.023,0,0,0,.36-.515.27.27,0,0,1,.276-.2h.612a.19.19,0,0,1,.2.239,2.108,2.108,0,0,1-.791,1.38,2.516,2.516,0,0,1-1.536.42,2.306,2.306,0,0,1-1.655-.552Zm2.89-3.143a.114.114,0,0,0,.12-.12,1.556,1.556,0,0,0-.4-1.09,1.253,1.253,0,0,0-.935-.373,1.368,1.368,0,0,0-.984.372,1.486,1.486,0,0,0-.4,1.091.113.113,0,0,0,.12.12ZM7.341,25.06a.24.24,0,0,1-.24-.24v-.54a.24.24,0,0,1,.24-.24H9.776a.24.24,0,0,1,.24.24V28.9a.113.113,0,0,0,.12.12h1.523a.24.24,0,0,1,.24.24v.54a.24.24,0,0,1-.24.24H7.222a.24.24,0,0,1-.24-.24v-.54a.24.24,0,0,1,.24-.24H8.793a.113.113,0,0,0,.12-.12V25.18a.113.113,0,0,0-.12-.12ZM9,22.817a.19.19,0,0,1-.192-.192v-.91A.2.2,0,0,1,9,21.522h.935a.2.2,0,0,1,.192.192v.911a.19.19,0,0,1-.192.192Zm4.717,7.221a.24.24,0,0,1-.24-.24V24.28a.24.24,0,0,1,.24-.24h.528a.181.181,0,0,1,.167.084c.072.12.12.276.312.276.264,0,.432-.48,1.511-.48a1.957,1.957,0,0,1,2.04,2.147V29.8a.241.241,0,0,1-.24.24h-.6a.24.24,0,0,1-.24-.24V26.451A1.269,1.269,0,0,0,15.872,25a1.292,1.292,0,0,0-1.319,1.391V29.8a.24.24,0,0,1-.24.24Zm7.116-.516a3.14,3.14,0,0,1-.756-2.483,3.29,3.29,0,0,1,.731-2.458,2.5,2.5,0,0,1,1.775-.66,2.276,2.276,0,0,1,1.571.54,2.03,2.03,0,0,1,.66,1.5.213.213,0,0,1-.2.24h-.636a.207.207,0,0,1-.227-.192.953.953,0,0,0-.36-.755,1.262,1.262,0,0,0-.8-.252,1.348,1.348,0,0,0-1.08.444,2.526,2.526,0,0,0-.311,1.594,2.582,2.582,0,0,0,.3,1.56,1.349,1.349,0,0,0,1.1.48,1.3,1.3,0,0,0,.84-.264.93.93,0,0,0,.323-.732c0-.131.084-.2.228-.2h.684c.12,0,.18.084.18.24a1.962,1.962,0,0,1-.732,1.56,2.428,2.428,0,0,1-1.523.48,2.57,2.57,0,0,1-1.763-.636ZM31.087,24.04a.24.24,0,0,1,.24.24V29.8a.24.24,0,0,1-.24.24h-.528a.182.182,0,0,1-.168-.083c-.072-.12-.12-.277-.312-.277-.264,0-.432.48-1.511.48a1.957,1.957,0,0,1-2.039-2.147V24.28a.24.24,0,0,1,.24-.24h.6a.24.24,0,0,1,.24.24v3.346a1.269,1.269,0,0,0,1.319,1.452,1.292,1.292,0,0,0,1.32-1.391V24.281a.24.24,0,0,1,.239-.24Zm3.35,5.662c-.1,0-.168.06-.24.252-.024.06-.072.084-.168.084h-.408a.24.24,0,0,1-.24-.24V21.762a.24.24,0,0,1,.24-.24h.6a.24.24,0,0,1,.24.24V23.92c0,.277.06.384.215.384.216,0,.468-.384,1.26-.384a2.014,2.014,0,0,1,1.835,1.02,4.393,4.393,0,0,1,.384,2.1,4.4,4.4,0,0,1-.372,2.086,2.116,2.116,0,0,1-1.943,1.033c-.972,0-1.152-.456-1.4-.456Zm2.422-1.176a3.012,3.012,0,0,0,.216-1.487,3.151,3.151,0,0,0-.216-1.487A1.2,1.2,0,0,0,35.732,25a1.21,1.21,0,0,0-1.128.552,3.01,3.01,0,0,0-.215,1.487,3.012,3.012,0,0,0,.215,1.487,1.427,1.427,0,0,0,2.255,0Zm2.87-.276c0-1.2.792-1.835,2.16-1.835h1.282a.113.113,0,0,0,.12-.12V25.8c0-.611-.4-.934-1.115-.934-.7,0-1.1.287-1.1.8,0,.145-.084.2-.277.2h-.551a.215.215,0,0,1-.24-.239c0-1.08.8-1.716,2.183-1.716,1.427,0,2.183.66,2.183,1.92V29.8a.241.241,0,0,1-.24.24h-.408a.182.182,0,0,1-.168-.083c-.06-.109-.12-.252-.24-.252-.216,0-.516.456-1.4.456a1.935,1.935,0,0,1-2.183-1.908Zm3.658-.347v-.384a.113.113,0,0,0-.12-.12H42.008c-.792,0-1.164.264-1.164.827,0,.612.4.936,1.152.936.948,0,1.391-.408,1.391-1.26Zm5.353.336a.84.84,0,0,0,1.678,0,.24.24,0,0,1,.24-.24h.6a.24.24,0,0,1,.24.24,1.919,1.919,0,0,1-3.838,0V25.3a.113.113,0,0,0-.12-.12h-1.2a.24.24,0,0,1-.239-.24v-.6a.24.24,0,0,1,.24-.239h1.2a.114.114,0,0,0,.119-.12v-1.86a.241.241,0,0,1,.24-.24h.6a.241.241,0,0,1,.24.24v1.86a.114.114,0,0,0,.12.12h1.919a.24.24,0,0,1,.24.24v.6a.24.24,0,0,1-.24.24h-1.92a.113.113,0,0,0-.12.12Zm4.62.923a3.6,3.6,0,0,1-.444-2.123,3.6,3.6,0,0,1,.444-2.122,2.585,2.585,0,0,1,4.078,0,3.6,3.6,0,0,1,.443,2.122,3.6,3.6,0,0,1-.443,2.123,2.585,2.585,0,0,1-4.078,0Zm3.142-.648a2.677,2.677,0,0,0,.264-1.475,2.673,2.673,0,0,0-.264-1.475,1.362,1.362,0,0,0-2.207,0,2.673,2.673,0,0,0-.263,1.475,2.677,2.677,0,0,0,.263,1.475,1.362,1.362,0,0,0,2.207,0Zm4.658-2V29.8a.241.241,0,0,1-.24.24h-.6a.24.24,0,0,1-.24-.24V24.281a.24.24,0,0,1,.24-.24h.468a.17.17,0,0,1,.168.084c.072.168.12.4.311.4.276,0,.444-.6,1.571-.6a1.96,1.96,0,0,1,1.908,2.04.241.241,0,0,1-.24.24h-.612a.241.241,0,0,1-.24-.24c0-.576-.371-.96-1.115-.96a1.319,1.319,0,0,0-1.38,1.511Z" transform="translate(-6.847 -10.522)"/>
</svg>