<?xml version="1.0" encoding="UTF-8" standalone="no"?>
<svg
   xmlns:dc="http://purl.org/dc/elements/1.1/"
   xmlns:cc="http://creativecommons.org/ns#"
   xmlns:rdf="http://www.w3.org/1999/02/22-rdf-syntax-ns#"
   xmlns:svg="http://www.w3.org/2000/svg"
   xmlns="http://www.w3.org/2000/svg"
   id="svg8"
   version="1.1"
   viewBox="0 0 99.218745 105.83334"
   height="400"
   width="375">
  <defs
     id="defs2">
    <marker
       style="overflow:visible"
       id="Arrow1Lstart"
       refX="0"
       refY="0"
       orient="auto">
      <path
         transform="matrix(0.8,0,0,0.8,10,0)"
         style="fill-rule:evenodd;stroke:#000000;stroke-width:1.00000003pt"
         d="M 0,0 5,-5 -12.5,0 5,5 Z"
         id="path817" />
    </marker>
  </defs>
  <metadata
     id="metadata5">
    <rdf:RDF>
      <cc:Work
         rdf:about="">
        <dc:format>image/svg+xml</dc:format>
        <dc:type
           rdf:resource="http://purl.org/dc/dcmitype/StillImage" />
        <dc:title></dc:title>
      </cc:Work>
    </rdf:RDF>
  </metadata>
  <g
     transform="translate(0,-191.16665)"
     id="layer1">
    <rect
       y="190.78328"
       x="-0.11070664"
       height="107.17508"
       width="99.716728"
       id="rect815"
       style="opacity:1;fill:#00686c;fill-opacity:1;stroke:none;stroke-width:0.17297477;stroke-miterlimit:4;stroke-dasharray:none;stroke-dashoffset:0;stroke-opacity:1;paint-order:fill markers stroke" />
    <path
       transform="translate(47.247021,204.3958)"
       d="m 39.145006,33.853928 c -0.541706,-0.201771 0.10205,-2.28363 -0.169839,-2.780012 -0.271889,-0.496382 -2.638325,-0.857607 -2.459931,-1.412737 0.178393,-0.55513 2.343408,0.338134 2.881472,0.08957 0.538063,-0.248559 0.479331,-2.364517 1.021908,-2.213517 0.542577,0.151 -0.117544,2.033148 0.177545,2.542945 0.295089,0.509797 2.141124,0.83724 1.992874,1.401359 -0.148249,0.564119 -1.948133,-0.392477 -2.414415,-0.0782 -0.466282,0.31428 -0.487909,2.652356 -1.029614,2.450584 z"
       id="path1123"
       style="opacity:1;fill:#ffffff;fill-opacity:1;stroke:none;stroke-width:17.7650013;stroke-miterlimit:4;stroke-dasharray:none;stroke-dashoffset:0;stroke-opacity:1;paint-order:fill markers stroke" />
    <path
       transform="translate(30.616068,183.22914)"
       d="m 23.020584,52.67177 c -0.358011,0.205222 -0.775935,-1.51147 -1.181145,-1.582187 -0.405211,-0.07072 -1.567127,1.15369 -1.743217,0.780502 -0.176091,-0.373189 1.292196,-0.946158 1.400606,-1.336755 0.10841,-0.390597 -1.023723,-1.564522 -0.675202,-1.75767 0.348521,-0.193148 1.01023,1.282741 1.398552,1.378239 0.388322,0.0955 1.305546,-0.908618 1.52581,-0.576554 0.220265,0.332064 -1.263817,0.931609 -1.400611,1.30015 -0.136795,0.368541 1.033218,1.589052 0.675207,1.794275 z"
       id="path1133"
       style="opacity:1;fill:#ffffff;fill-opacity:1;stroke:none;stroke-width:17.7650013;stroke-miterlimit:4;stroke-dasharray:none;stroke-dashoffset:0;stroke-opacity:1;paint-order:fill markers stroke" />
    <path
       transform="translate(30.238092,191.92259)"
       d="m 71.582609,79.505162 c -0.436198,0.674863 -2.263738,-1.019006 -2.99663,-0.853998 -0.732892,0.165009 -1.747568,3.329253 -2.427693,3.020944 -0.680124,-0.30831 1.005969,-2.993335 0.764667,-3.760854 -0.241301,-0.767518 -3.235285,-0.990687 -2.857864,-1.649171 0.377422,-0.658484 3.123207,0.850106 3.848186,0.595738 0.724979,-0.254369 1.154311,-3.312338 1.816899,-2.955218 0.662587,0.35712 -0.959209,2.545039 -0.754239,3.29906 0.20497,0.754021 3.042873,1.628636 2.606674,2.303499 z"
       id="path1137"
       style="opacity:1;fill:#ffffff;fill-opacity:1;stroke:none;stroke-width:17.7650013;stroke-miterlimit:4;stroke-dasharray:none;stroke-dashoffset:0;stroke-opacity:1;paint-order:fill markers stroke" />
    <path
       transform="translate(-182.18453,198.34819)"
       d="m 269.28634,19.518668 c -0.65144,-0.251907 1.76244,-10.6493528 1.49325,-11.2761724 -0.26919,-0.6268196 -7.85488,-5.8214823 -7.54188,-6.4312222 0.31301,-0.6097398 9.51258,2.1468463 10.12404,1.8566084 0.61145,-0.2902379 5.99397,-11.3117998 6.65788,-11.0896112 0.66391,0.2221887 -1.75036,11.4166802 -1.45681,12.0222361 0.29355,0.6055561 8.76654,5.5065853 8.4894,6.1251613 -0.27714,0.618575 -9.66107,-1.962638 -10.34669,-1.7470844 -0.68561,0.2155535 -6.76776,10.7919914 -7.41919,10.5400844 z"
       id="path1169"
       style="opacity:1;fill:#ffffff;fill-opacity:1;stroke:none;stroke-width:17.7650013;stroke-miterlimit:4;stroke-dasharray:none;stroke-dashoffset:0;stroke-opacity:1;paint-order:fill markers stroke" />
  </g>
  <g
     style="opacity:1"
     id="layer2">
    <path
       id="path1106"
       d="M 152.06329,70.539915 C 121.73727,84.992649 94.708952,93.302401 71.861103,97.89243 21.25791,108.05838 -8.8388893,99.977982 -8.8388893,99.977982"
       style="fill:none;stroke:#ffffff;stroke-width:14.58656883;stroke-linecap:butt;stroke-linejoin:miter;stroke-miterlimit:4;stroke-dasharray:none;stroke-opacity:1" />
  </g>
  <g
     id="layer3">
    <path
       transform="translate(-108.47917,2.6458333)"
       d="m 272.13214,101.61955 c -0.18523,0.29543 -1.09767,-0.4753 -1.44899,-0.45053 -0.35132,0.0248 -0.81134,1.17478 -1.1109,0.98446 -0.29956,-0.19032 0.56982,-1.06927 0.5326,-1.40181 -0.0372,-0.33253 -1.2311,-1.09931 -1.04058,-1.385743 0.19052,-0.286432 1.14669,0.856783 1.49129,0.784773 0.3446,-0.072 0.82679,-1.199837 1.1109,-1.015843 0.2841,0.183995 -0.58902,1.094263 -0.5326,1.433193 0.0564,0.33894 1.18352,0.75608 0.99828,1.0515 z"
       id="path1156"
       style="opacity:1;fill:#ffffff;fill-opacity:1;stroke:none;stroke-width:17.7650013;stroke-miterlimit:4;stroke-dasharray:none;stroke-dashoffset:0;stroke-opacity:1;paint-order:fill markers stroke" />
    <path
       transform="translate(-125.11012,16.630952)"
       d="m 167.08331,73.826218 -1.96595,-2.100361 -2.06559,0.962625 1.93565,-1.985028 -1.09296,-2.512997 1.94131,1.889381 2.54733,-0.751645 -1.93565,1.985029 z"
       id="path1160"
       style="opacity:1;fill:#ffffff;fill-opacity:1;stroke:none;stroke-width:17.7650013;stroke-miterlimit:4;stroke-dasharray:none;stroke-dashoffset:0;stroke-opacity:1;paint-order:fill markers stroke" />
    <path
       transform="translate(-179.16072,14.363095)"
       d="m 247.86797,60.353093 -0.1011,-1.459674 -1.36016,-0.778395 1.6171,0.04801 0.58873,-1.511991 0.10139,1.773744 1.37546,0.597761 -1.48696,0.0761 z"
       id="path1167"
       style="opacity:1;fill:#ffffff;fill-opacity:1;stroke:none;stroke-width:17.7650013;stroke-miterlimit:4;stroke-dasharray:none;stroke-dashoffset:0;stroke-opacity:1;paint-order:fill markers stroke" />
  </g>
  <g
     id="layer4">
    <text
       id="text1182"
       y="104.6994"
       x="-1.8898809"
       style="font-style:italic;font-variant:normal;font-weight:normal;font-stretch:normal;font-size:50.79999924px;line-height:1.25;font-family:'TeX Gyre Bonum';-inkscape-font-specification:'TeX Gyre Bonum Italic';letter-spacing:0px;word-spacing:0px;fill:#000000;fill-opacity:1;stroke:none;stroke-width:0.26458335"
       xml:space="preserve"><tspan
         style="font-style:italic;font-variant:normal;font-weight:normal;font-stretch:normal;font-size:50.79999924px;font-family:'Latin Modern Mono';-inkscape-font-specification:'Latin Modern Mono Italic';fill:#ffffff;stroke-width:0.26458335"
         y="104.6994"
         x="-1.8898809"
         id="tspan1180">&quot;</tspan></text>
    <flowRoot
       transform="scale(0.26458334)"
       style="font-style:normal;font-weight:normal;font-size:40px;line-height:1.25;font-family:sans-serif;letter-spacing:0px;word-spacing:0px;fill:#000000;fill-opacity:1;stroke:none"
       id="flowRoot1184"
       xml:space="preserve"><flowRegion
         id="flowRegion1186"><rect
           y="128.57143"
           x="52.857143"
           height="47.142857"
           width="1.4285715"
           id="rect1188" /></flowRegion><flowPara
         id="flowPara1190"></flowPara></flowRoot>    <flowRoot
       transform="scale(0.26458334)"
       style="font-style:normal;font-weight:normal;font-size:40px;line-height:1.25;font-family:sans-serif;letter-spacing:0px;word-spacing:0px;fill:#000000;fill-opacity:1;stroke:none"
       id="flowRoot1192"
       xml:space="preserve"><flowRegion
         id="flowRegion1194"><rect
           y="-31.428572"
           x="34.285713"
           height="221.42857"
           width="124.28571"
           id="rect1196" /></flowRegion><flowPara
         id="flowPara1198"></flowPara></flowRoot>  </g>
</svg>
