<?xml version="1.0" encoding="UTF-8" standalone="no"?>
<!-- Created with Inkscape (http://www.inkscape.org/) -->

<svg
   xmlns:osb="http://www.openswatchbook.org/uri/2009/osb"
   xmlns:dc="http://purl.org/dc/elements/1.1/"
   xmlns:cc="http://creativecommons.org/ns#"
   xmlns:rdf="http://www.w3.org/1999/02/22-rdf-syntax-ns#"
   xmlns:svg="http://www.w3.org/2000/svg"
   xmlns="http://www.w3.org/2000/svg"
   xmlns:sodipodi="http://sodipodi.sourceforge.net/DTD/sodipodi-0.dtd"
   xmlns:inkscape="http://www.inkscape.org/namespaces/inkscape"
   width="318"
   height="480"
   viewBox="0 0 84.137499 127"
   version="1.1"
   id="svg8"
   inkscape:version="0.92.3 (2405546, 2018-03-11)"
   sodipodi:docname="blank.svg">
  <sodipodi:namedview
     id="base"
     pagecolor="#ffffff"
     bordercolor="#666666"
     borderopacity="1.0"
     inkscape:pageopacity="0.0"
     inkscape:pageshadow="2"
     inkscape:zoom="0.98994949"
     inkscape:cx="-26.372088"
     inkscape:cy="243.15487"
     inkscape:document-units="mm"
     inkscape:current-layer="layer3"
     showgrid="false"
     inkscape:window-width="1920"
     inkscape:window-height="1025"
     inkscape:window-x="1280"
     inkscape:window-y="27"
     inkscape:window-maximized="1"
     units="px"
     inkscape:pagecheckerboard="false" />
  <defs
     id="defs2">
    <linearGradient
       id="linearGradient1034"
       osb:paint="solid">
      <stop
         style="stop-color:#000000;stop-opacity:1;"
         offset="0"
         id="stop1032" />
    </linearGradient>
  </defs>
  <metadata
     id="metadata5">
    <rdf:RDF>
      <cc:Work
         rdf:about="">
        <dc:format>image/svg+xml</dc:format>
        <dc:type
           rdf:resource="http://purl.org/dc/dcmitype/StillImage" />
        <dc:title></dc:title>
      </cc:Work>
    </rdf:RDF>
  </metadata>
  <g
     inkscape:groupmode="layer"
     id="layer3"
     inkscape:label="Layer 2">
    <rect
       style="opacity:1;fill:#f7f7f7;fill-opacity:1;stroke:none;stroke-width:0.29722622;stroke-miterlimit:4;stroke-dasharray:none;stroke-dashoffset:0;stroke-opacity:1;paint-order:fill markers stroke"
       id="rect8669"
       width="84.666664"
       height="127"
       x="0.26726952"
       y="-7.4319541e-06" />
    <rect
       style="opacity:1;fill:#a6d71c;fill-opacity:1;stroke:none;stroke-width:0.29633334;stroke-miterlimit:4;stroke-dasharray:none;stroke-dashoffset:0;stroke-opacity:1;paint-order:fill markers stroke"
       id="rect8671"
       width="0.26726952"
       height="1.3363476"
       x="89.535286"
       y="136.08717" />
  </g>
  <g
     id="layer1"
     inkscape:groupmode="layer"
     inkscape:label="Layer 1"
     style="display:inline"
     transform="translate(0,-169.99998)">
    <path
       style="opacity:1;fill:#a6d71c;fill-opacity:1;stroke:none;stroke-width:0.31737906;stroke-miterlimit:4;stroke-dasharray:none;stroke-dashoffset:0;stroke-opacity:1;paint-order:fill markers stroke"
       d="m 38.504273,266.18165 c -5.472987,-0.73837 -11.089644,-2.89499 -15.558077,-5.9738 -1.202229,-0.82836 -3.275327,-2.59556 -4.606885,-3.92711 -9.3760805,-9.37608 -12.5581029,-23.23376 -8.183719,-35.64003 4.188806,-11.87994 14.47998,-20.52237 26.9131,-22.60132 4.087815,-0.68354 10.120889,-0.44659 13.935058,0.54729 12.426608,3.23811 21.794637,12.62508 25.046823,25.09747 0.975984,3.74296 1.208023,9.81296 0.530104,13.86722 -1.243487,7.43657 -4.662434,13.91321 -10.123889,19.17806 -6.296322,6.06968 -13.839525,9.25762 -22.732348,9.60723 -1.733925,0.0682 -4.082998,-0.002 -5.220167,-0.15501 z m 7.002265,-3.64192 c 1.370124,-0.69898 2.468259,-1.99209 2.845628,-3.35087 0.176069,-0.63396 0.293313,-5.09023 0.294265,-11.18448 l 0.0013,-10.13063 h 10.496135 c 9.858481,0 10.562144,-0.0337 11.582693,-0.55432 3.488658,-1.77978 4.245114,-6.84326 1.441225,-9.64714 -1.624937,-1.62495 -2.219431,-1.70025 -13.422298,-1.70025 H 48.647763 v -10.09775 c 0,-11.20287 -0.0753,-11.79737 -1.700245,-13.4223 -2.803886,-2.80389 -7.867362,-2.04744 -9.647145,1.44123 -0.520646,1.02054 -0.554323,1.7242 -0.554323,11.58268 v 10.49614 l -10.130625,0.002 c -6.09425,6.7e-4 -10.550516,0.1182 -11.184481,0.29428 -1.376066,0.38216 -2.653844,1.47933 -3.379575,2.90188 -0.468362,0.91807 -0.562813,1.54305 -0.480258,3.17788 0.127577,2.52637 0.996656,4.0234 2.85915,4.92502 1.196993,0.57934 1.620405,0.60096 11.769092,0.60096 h 10.527503 l 0.08048,10.86021 0.08048,10.86022 0.756117,1.14211 c 1.036357,1.56542 2.713543,2.35725 4.9935,2.35754 1.210199,1.9e-4 2.131186,-0.17773 2.868936,-0.5541 z"
       id="path1030"
       inkscape:connector-curvature="0" />
  </g>
</svg>
