<?xml version="1.0" encoding="UTF-8" standalone="no"?>
<svg
   xmlns:dc="http://purl.org/dc/elements/1.1/"
   xmlns:cc="http://creativecommons.org/ns#"
   xmlns:rdf="http://www.w3.org/1999/02/22-rdf-syntax-ns#"
   xmlns:svg="http://www.w3.org/2000/svg"
   xmlns="http://www.w3.org/2000/svg"
   viewBox="0 0 647.64525 477.70334"
   height="477.70334"
   width="647.64526"
   xml:space="preserve"
   id="svg2"
   version="1.1"><metadata
     id="metadata8"><rdf:RDF><cc:Work
         rdf:about=""><dc:format>image/svg+xml</dc:format><dc:type
           rdf:resource="http://purl.org/dc/dcmitype/StillImage" /><dc:title></dc:title></cc:Work></rdf:RDF></metadata><defs
     id="defs6"><clipPath
       id="clipPath18"
       clipPathUnits="userSpaceOnUse"><path
         id="path16"
         d="M 0,595.276 H 841.89 V 0 H 0 Z" /></clipPath></defs><g
     transform="matrix(1.3333333,0,0,-1.3333333,-216.35407,655.0344)"
     id="g10"><g
       id="g12"><g
         clip-path="url(#clipPath18)"
         id="g14"><g
           transform="translate(334.5771,397.2434)"
           id="g20"><path
             id="path22"
             style="fill:#a6d71c;fill-opacity:1;fill-rule:nonzero;stroke:none"
             d="m 0,0 -17.083,72.599 c 4.124,2.547 6.362,7.524 5.191,12.501 -1.465,6.226 -7.702,10.087 -13.928,8.622 -6.226,-1.465 -10.087,-7.702 -8.622,-13.928 1.171,-4.977 5.393,-8.434 10.219,-8.876 L -7.141,-1.68 Z" /></g><g
           transform="translate(477.9536,417.614)"
           id="g24"><path
             id="path26"
             style="fill:#a6d71c;fill-opacity:1;fill-rule:nonzero;stroke:none"
             d="m 0,0 c -4.042,4.957 -11.34,5.698 -16.297,1.656 -3.962,-3.232 -5.222,-8.541 -3.506,-13.074 l -43.824,-35.741 4.636,-5.684 43.824,35.74 c 4.095,-2.591 9.549,-2.425 13.511,0.806 C 3.301,-12.254 4.042,-4.957 0,0" /></g><g
           transform="translate(288.8027,371.739)"
           id="g28"><path
             id="path30"
             style="fill:#a6d71c;fill-opacity:1;fill-rule:nonzero;stroke:none"
             d="m 0,0 -22.911,20.571 c 1.929,4.447 0.923,9.81 -2.881,13.225 -4.76,4.274 -12.084,3.88 -16.358,-0.879 -4.273,-4.76 -3.879,-12.084 0.88,-16.358 3.805,-3.415 9.244,-3.841 13.458,-1.446 L -4.901,-5.458 Z" /></g><g
           transform="translate(272.7192,279.8332)"
           id="g32"><path
             id="path34"
             style="fill:#a6d71c;fill-opacity:1;fill-rule:nonzero;stroke:none"
             d="m 0,0 -2.621,6.852 -87.3,-33.385 c -3.077,3.745 -8.308,5.298 -13.084,3.471 -5.974,-2.284 -8.966,-8.981 -6.682,-14.956 2.285,-5.974 8.982,-8.965 14.957,-6.681 4.775,1.826 7.635,6.472 7.428,11.314 z" /></g><g
           transform="translate(301.8389,244.3684)"
           id="g36"><path
             id="path38"
             style="fill:#a6d71c;fill-opacity:1;fill-rule:nonzero;stroke:none"
             d="m 0,0 -5.847,4.43 -23.602,-31.159 c -4.592,1.55 -9.852,0.101 -12.939,-3.974 -3.862,-5.099 -2.86,-12.365 2.239,-16.228 5.099,-3.861 12.365,-2.858 16.227,2.241 3.087,4.075 3.058,9.532 0.32,13.532 z" /></g><g
           transform="translate(266.7734,329.4358)"
           id="g40"><path
             id="path42"
             style="fill:#a6d71c;fill-opacity:1;fill-rule:nonzero;stroke:none"
             d="m 0,0 -60.35,8.297 c -0.896,4.764 -4.734,8.64 -9.8,9.337 -6.337,0.871 -12.182,-3.561 -13.053,-9.898 -0.871,-6.337 3.561,-12.181 9.898,-13.052 5.065,-0.697 9.808,2.002 11.956,6.346 l 60.35,-8.297 z" /></g><g
           transform="translate(394.8223,436.6853)"
           id="g44"><path
             id="path46"
             style="fill:#a6d71c;fill-opacity:1;fill-rule:nonzero;stroke:none"
             d="m 0,0 c -6.041,2.102 -12.644,-1.092 -14.746,-7.133 -1.68,-4.829 0.03,-10.011 3.867,-12.971 l -7.622,-21.906 6.928,-2.411 7.623,21.906 c 4.846,-0.06 9.403,2.94 11.083,7.769 C 9.235,-8.705 6.041,-2.102 0,0" /></g><g
           transform="translate(398.79,291.9963)"
           id="g48"><path
             id="path50"
             style="fill:#a6d71c;fill-opacity:1;fill-rule:nonzero;stroke:none"
             d="m 0,0 c 2.023,6.861 4.9,12.672 8.624,17.444 3.723,4.77 8.133,8.46 13.23,11.075 0.772,0.395 1.561,0.751 2.357,1.086 -3.434,36.757 -34.356,65.53 -72.009,65.53 -39.951,0 -72.338,-32.387 -72.338,-72.338 0,-36.881 27.608,-67.294 63.281,-71.753 -0.166,1.891 -0.276,3.848 -0.276,5.935 V 4.803 h -12.348 v 23.912 h 12.151 v 24.696 h 29.793 V 28.715 H -9.896 V 4.803 h -17.639 v -40.769 c 0,-4.446 0.633,-7.809 1.889,-10.105 8.535,2.743 16.375,7.028 23.199,12.528 -0.386,3.386 -0.591,6.947 -0.591,10.709 0,8.36 1.01,15.974 3.038,22.834" /></g><g
           transform="translate(341.9351,243.0402)"
           id="g52"><path
             id="path54"
             style="fill:#a7a5a6;fill-opacity:1;fill-rule:nonzero;stroke:none"
             d="m 0,0 c 0.718,-8.173 2.959,-14.546 6.779,-19.056 4.704,-5.555 12.216,-8.33 22.541,-8.33 3.135,0 6.271,0.328 9.407,0.982 3.136,0.654 5.553,1.437 7.252,2.35 V 0.055 c -1.831,-0.915 -4.116,-1.372 -6.859,-1.372 -3.4,0 -5.881,1.141 -7.449,3.43 -0.164,0.24 -0.315,0.502 -0.462,0.772 C 24.226,0.64 16.786,-0.585 9.057,-0.585 5.987,-0.585 2.969,-0.371 0,0" /></g><g
           transform="translate(425.3491,281.7063)"
           id="g56"><path
             id="path58"
             style="fill:#a7a5a6;fill-opacity:1;fill-rule:nonzero;stroke:none"
             d="m 0,0 c 0,1.96 0.258,4.083 0.782,6.371 0.522,2.285 1.307,4.376 2.352,6.272 1.046,1.892 2.319,3.46 3.823,4.704 1.501,1.24 3.298,1.862 5.389,1.862 3.92,0 6.728,-1.831 8.43,-5.487 C 22.472,10.062 23.323,5.488 23.323,0 Z m 42.432,27.343 c -3.203,4.768 -7.284,8.526 -12.249,11.269 -4.969,2.745 -10.977,4.117 -18.032,4.117 -5.212,0 -10.042,-0.953 -14.499,-2.833 0.209,-2.243 0.328,-4.511 0.328,-6.809 0,-22.775 -10.534,-43.08 -26.986,-56.34 0.527,-4.614 1.399,-8.892 2.642,-12.81 2.156,-6.796 5.161,-12.514 9.017,-17.151 3.851,-4.64 8.361,-8.134 13.525,-10.485 5.16,-2.353 10.744,-3.528 16.756,-3.528 9.017,0 16.564,2.224 22.638,6.664 6.077,4.441 10.811,10.452 14.212,18.031 L 27.243,-29.79 c -1.178,-3.009 -2.811,-5.621 -4.9,-7.842 -2.092,-2.223 -4.836,-3.332 -8.232,-3.332 -2.091,0 -3.988,0.555 -5.684,1.666 -1.699,1.11 -3.135,2.613 -4.313,4.508 -1.175,1.894 -2.126,4.117 -2.842,6.664 -0.719,2.549 -1.077,5.258 -1.077,8.135 h 51.351 v 8.624 c 0,7.84 -0.719,15.057 -2.154,21.657 -1.442,6.598 -3.76,12.281 -6.96,17.053" /></g><g
           transform="translate(537.7529,245.3488)"
           id="g60"><path
             id="path62"
             style="fill:#a7a5a6;fill-opacity:1;fill-rule:nonzero;stroke:none"
             d="m 0,0 c -1.635,-1.112 -3.562,-1.665 -5.782,-1.665 -4.313,0 -7.711,2.252 -10.193,6.762 -2.484,4.507 -3.722,10.877 -3.722,19.109 0,8.232 1.273,14.633 3.82,19.208 2.549,4.573 5.715,6.859 9.507,6.859 2.089,0 3.984,-0.523 5.683,-1.566 1.698,-1.049 3.136,-2.484 4.313,-4.312 l 12.348,23.91 c -2.353,2.613 -5.62,4.966 -9.799,7.057 -4.184,2.089 -9.15,3.136 -14.898,3.136 -6.535,0 -12.317,-1.342 -17.345,-4.018 -5.033,-2.679 -9.245,-6.437 -12.642,-11.269 -3.4,-4.837 -6.012,-10.555 -7.84,-17.152 -1.832,-6.599 -2.745,-13.885 -2.745,-21.853 0,-7.972 0.883,-15.288 2.647,-21.951 1.764,-6.665 4.341,-12.415 7.742,-17.249 3.396,-4.835 7.577,-8.593 12.544,-11.27 4.964,-2.677 10.713,-4.018 17.247,-4.018 5.618,0 10.585,0.98 14.897,2.94 4.312,1.959 7.839,4.637 10.584,8.035 L 4.019,4.409 C 2.971,2.578 1.632,1.108 0,0" /></g><g
           transform="translate(647.0205,297.1897)"
           id="g64"><path
             id="path66"
             style="fill:#a7a5a6;fill-opacity:1;fill-rule:nonzero;stroke:none"
             d="m 0,0 c -0.655,5.227 -1.96,9.865 -3.92,13.917 -1.96,4.049 -4.738,7.283 -8.329,9.702 -3.597,2.417 -8.331,3.626 -14.211,3.626 -6.272,0 -11.466,-1.764 -15.581,-5.291 C -46.157,18.426 -49,14.373 -50.568,9.801 h -0.587 V 69.188 H -81.928 V -78.987 h 30.773 v 60.369 c 0,5.616 1.044,10.157 3.135,13.621 2.089,3.462 5.029,5.195 8.82,5.195 3.789,0 6.304,-1.635 7.546,-4.901 1.24,-3.268 1.862,-7.056 1.862,-11.368 V -78.987 H 0.979 v 62.721 C 0.979,-10.649 0.653,-5.226 0,0" /></g><g
           transform="translate(291.2183,157.8244)"
           id="g68"><path
             id="path70"
             style="fill:#231f20;fill-opacity:1;fill-rule:nonzero;stroke:none"
             d="M 0,0 H 31.934 L 16.109,38.378 Z m -9.571,-23.026 h -5.97 l 29.091,67.09 h 5.402 l 28.523,-67.09 h -5.97 L 33.924,-4.927 H -1.99 Z" /></g><g
           transform="translate(360.3916,157.8244)"
           id="g72"><path
             id="path74"
             style="fill:#231f20;fill-opacity:1;fill-rule:nonzero;stroke:none"
             d="M 0,0 H 31.934 L 16.109,38.378 Z m -9.571,-23.026 h -5.97 l 29.092,67.09 h 5.401 l 28.522,-67.09 H 41.505 L 33.924,-4.927 H -1.99 Z" /></g><g
           transform="translate(466.8789,144.7473)"
           id="g76"><path
             id="path78"
             style="fill:#231f20;fill-opacity:1;fill-rule:nonzero;stroke:none"
             d="m 0,0 c -2.844,-3.601 -6.207,-6.459 -10.091,-8.574 -3.886,-2.117 -8.672,-3.175 -14.356,-3.175 -5.055,0 -9.699,0.884 -13.931,2.653 -4.233,1.768 -7.882,4.217 -10.945,7.344 -3.065,3.126 -5.448,6.854 -7.154,11.182 -1.705,4.326 -2.559,9.049 -2.559,14.166 0,5.116 0.868,9.839 2.606,14.167 1.736,4.327 4.153,8.054 7.249,11.181 3.094,3.127 6.759,5.575 10.993,7.344 4.23,1.768 8.843,2.653 13.835,2.653 4.926,0 9.413,-0.821 13.456,-2.463 4.042,-1.644 7.263,-4.075 9.665,-7.297 l -3.885,-3.602 c -1.959,2.465 -4.595,4.502 -7.912,6.113 -3.317,1.612 -7.061,2.417 -11.23,2.417 -4.486,0 -8.528,-0.805 -12.129,-2.417 -3.6,-1.611 -6.65,-3.807 -9.144,-6.586 -2.497,-2.78 -4.422,-6.016 -5.781,-9.712 -1.36,-3.696 -2.037,-7.628 -2.037,-11.798 0,-4.108 0.677,-8.008 2.037,-11.703 1.359,-3.696 3.284,-6.934 5.781,-9.713 2.494,-2.781 5.544,-4.992 9.144,-6.634 3.601,-1.644 7.643,-2.463 12.129,-2.463 3.917,0 7.565,0.711 10.945,2.133 3.379,1.421 6.586,3.994 9.618,7.722 z" /></g><g
           transform="translate(476.2363,201.8889)"
           id="g80"><path
             id="path82"
             style="fill:#231f20;fill-opacity:1;fill-rule:nonzero;stroke:none"
             d="M 0,0 H 5.401 V -29.755 H 44.537 V 0 h 5.401 v -67.091 h -5.401 v 32.314 H 5.401 V -67.091 H 0 Z" /></g><g
           transform="translate(544.9873,139.6301)"
           id="g84"><path
             id="path86"
             style="fill:#231f20;fill-opacity:1;fill-rule:nonzero;stroke:none"
             d="M 0,0 H 36.768 V -4.832 H -5.307 V 62.259 H 35.535 V 57.425 H 0 V 32.408 H 33.262 V 27.67 H 0 Z" /></g><g
           transform="translate(642.4004,142.5686)"
           id="g88"><path
             id="path90"
             style="fill:#231f20;fill-opacity:1;fill-rule:nonzero;stroke:none"
             d="M 0,0 H 0.19 V 59.32 H 5.592 V -7.771 H -1.23 l -41.791,59.7 h -0.19 v -59.7 h -5.401 V 59.32 h 6.824 z" /></g></g></g></g></svg>